<svg width="112" height="52" viewBox="0 0 112 52" fill="none" xmlns="http://www.w3.org/2000/svg">
<path d="M30.0133 13.4633C29.5133 15.7971 29.0142 18.1308 28.5151 20.4636C28.0189 22.7822 27.5236 25.1018 27.0283 27.4204C26.5264 29.7693 26.0236 32.1172 25.5245 34.4661C25.2107 35.9438 24.9035 37.4223 24.5916 38.9C24.5632 39.0324 24.5254 39.1639 24.48 39.2916C24.3959 39.5281 24.2201 39.6568 23.9753 39.6899C23.8855 39.7022 23.7948 39.7012 23.704 39.7012C22.1473 39.6993 20.5895 39.6974 19.0328 39.6936C18.9298 39.6936 18.8201 39.7173 18.6963 39.6284C18.8674 38.6483 19.1046 37.6664 19.3069 36.6778C19.5101 35.6864 19.7237 34.6969 19.9326 33.7074C20.1415 32.717 20.3513 31.7275 20.5602 30.737C20.7663 29.7617 20.9733 28.7864 21.1794 27.8111C21.3892 26.8206 21.599 25.8311 21.8098 24.8416C22.0196 23.854 22.2295 22.8664 22.4393 21.876C22.3117 21.8589 22.289 21.9365 22.2607 21.998C22.1652 22.2033 22.0688 22.4086 21.9837 22.6186C19.8324 27.9719 17.683 33.3272 15.5327 38.6805C15.4712 38.8347 15.4098 38.9898 15.3417 39.1412C15.1688 39.5253 14.8767 39.7182 14.4476 39.7069C13.9334 39.6936 13.4201 39.688 12.9059 39.687C12.0439 39.6861 11.1828 39.6918 10.3208 39.6946C10.1695 39.6946 10.0183 39.6927 9.86706 39.6908C9.77916 39.6889 9.72339 39.6426 9.71961 39.5565C9.71205 39.4061 9.71205 39.2547 9.71205 39.1033C9.71205 34.0224 9.71205 28.9415 9.71205 23.8606C9.71205 23.7244 9.71205 23.5882 9.71016 23.452C9.70827 23.3763 9.70638 23.2883 9.60524 23.2864C9.51544 23.2845 9.48709 23.3631 9.46535 23.4387C9.43983 23.5258 9.40958 23.6109 9.38217 23.6979C8.92469 25.169 8.46721 26.64 8.00972 28.111C6.85657 31.8164 5.70435 35.5237 4.54552 39.2273C4.40563 39.6738 4.52189 39.6511 3.95666 39.6501C3.20049 39.6501 2.44526 39.6501 1.68909 39.6501C1.6286 39.6501 1.56811 39.6511 1.50761 39.6501C1.24673 39.6435 1.23067 39.6199 1.3129 39.354C1.33937 39.268 1.36961 39.1819 1.39797 39.0958C3.19482 33.6138 4.99166 28.1318 6.78756 22.6488C7.82257 19.4911 8.85663 16.3344 9.89069 13.1767C9.91905 13.0906 9.94741 13.0045 9.97387 12.9184C10.0381 12.7065 10.006 12.6696 9.80184 12.716C9.34342 12.821 8.90295 12.9752 8.4776 13.1748C6.94731 13.8918 5.80076 15.0232 4.96236 16.4725C3.95477 18.215 3.5729 20.0994 3.76005 22.0983C3.81677 22.7009 3.95666 23.2902 4.13908 23.8682C4.18445 24.0111 4.14948 24.0584 3.9973 24.0726C3.30919 24.1397 2.63336 24.0801 1.99818 23.7992C0.795869 23.2666 0.17392 22.3045 0.0283572 21.0208C-0.0293007 20.509 0.00283652 19.9953 0.107755 19.4864C0.366743 18.2254 0.836513 17.0637 1.62671 16.0335C2.84509 14.4452 4.26763 13.0868 6.0002 12.0689C7.43503 11.226 8.97478 10.6736 10.6128 10.3832C11.8237 10.1684 13.0439 10.106 14.2708 10.1353C14.4816 10.14 14.6933 10.1684 14.9003 10.2082C15.3398 10.2914 15.5553 10.5128 15.6291 10.9593C15.6688 11.1977 15.6896 11.4398 15.7 11.6801C15.7132 11.9819 15.7094 12.2846 15.7094 12.5873C15.7094 19.1648 15.7094 25.7432 15.7094 32.3206C15.7094 32.472 15.7094 32.6233 15.7132 32.7737C15.7141 32.8144 15.7189 32.875 15.7803 32.8627C15.8162 32.8551 15.8607 32.8201 15.8748 32.786C15.9816 32.5363 16.0866 32.2856 16.183 32.0311C18.787 25.1841 21.3901 18.337 23.9951 11.4909C24.0537 11.3358 24.1171 11.1816 24.1889 11.0321C24.3392 10.7209 24.5935 10.5506 24.9347 10.5118C25.0396 10.4995 25.1464 10.4967 25.2513 10.5005C26.8081 10.5629 28.3649 10.5421 29.9216 10.5222C30.088 10.5203 30.2543 10.5194 30.4207 10.5241C30.5889 10.5298 30.6277 10.579 30.5899 10.7578C30.3989 11.6593 30.2052 12.5599 30.0114 13.4605L30.0133 13.4633ZM112 36.1982C111.997 36.2427 111.992 36.289 111.98 36.3316C111.789 37.0042 111.527 37.6456 111.112 38.2151C110.406 39.1828 109.453 39.6814 108.253 39.7135C107.454 39.7353 106.692 39.5707 105.951 39.2916C105.315 39.0523 104.849 38.6181 104.528 38.0221C104.23 37.4687 104.084 36.8708 103.995 36.2531C103.868 35.3724 103.955 34.4992 104.13 33.6384C104.572 31.4626 105.038 29.2916 105.494 27.1186C105.574 26.7346 105.652 26.3495 105.736 25.9655C105.855 25.4244 105.838 24.8842 105.719 24.3469C105.628 23.9373 105.425 23.5882 105.11 23.3082C104.831 23.0603 104.513 22.909 104.131 22.8882C103.453 22.8522 102.811 22.9724 102.192 23.2533C101.745 23.4567 101.483 23.7736 101.385 24.2655C101.123 25.5842 100.834 26.8973 100.555 28.2122C99.9675 30.9896 99.3795 33.768 98.7907 36.5454C98.5969 37.4611 98.3984 38.3768 98.2027 39.2925C98.1867 39.3663 98.1753 39.4411 98.1517 39.513C98.1271 39.5886 98.077 39.6426 97.9901 39.6454C97.9145 39.6482 97.8388 39.6492 97.7632 39.6492C96.1157 39.6492 94.4673 39.6492 92.8198 39.6492C92.7149 39.6492 92.6071 39.6653 92.4946 39.6085C92.4417 39.4051 92.4946 39.1998 92.5381 38.9955C92.8018 37.7392 93.0627 36.482 93.3321 35.2267C93.5693 34.1189 93.8179 33.014 94.0599 31.9072C94.0854 31.7899 94.1043 31.6698 94.1119 31.5496C94.1327 31.228 93.9852 31 93.7045 30.8515C93.4739 30.7295 93.4219 30.7389 93.2555 30.9603C93.0287 31.2621 92.8065 31.5686 92.5825 31.8732C92.5201 31.9583 92.4587 32.0444 92.3954 32.1295C92.3405 32.2024 92.281 32.2856 92.1761 32.2241C92.0787 32.1674 92.1061 32.068 92.1241 31.9801C92.1685 31.754 92.2725 31.5572 92.4067 31.369C92.6808 30.9868 92.798 30.5554 92.7555 30.0852C92.747 29.9954 92.7423 29.9027 92.7158 29.8166C92.5579 29.2991 92.3547 28.8015 92.0248 28.3664C92.023 28.3664 92.022 28.3664 92.0211 28.3664C92.0211 28.3636 92.0201 28.3607 92.0192 28.3588L92.0286 28.3673C91.9955 28.2008 91.902 28.0618 91.8254 27.9161C91.6704 27.6219 91.5069 27.3324 91.3632 27.0335C91.2554 26.8093 91.1675 26.5737 91.2214 26.2975C91.5872 26.5775 91.8868 26.9058 92.2063 27.3712C92.2517 27.3646 92.3027 27.3485 92.2999 27.2974C92.2942 27.1934 92.2819 27.0884 92.2612 26.9862C92.1714 26.5435 92.0768 26.1017 91.9842 25.6599C91.9719 25.6013 91.9558 25.5426 91.9483 25.483C91.9351 25.3856 91.9653 25.3071 92.0523 25.2522C92.1269 25.2049 92.1978 25.2267 92.2649 25.2626C92.7451 25.5237 93.0296 26.1651 92.8944 26.6901C92.8614 26.8206 92.8065 26.9465 92.764 27.0742C92.7007 27.2681 92.608 27.4318 92.3821 27.4724C92.3661 27.4753 92.3576 27.5207 92.3462 27.5472C92.7545 28.041 93.0655 28.5953 93.2933 29.1885C93.575 29.9225 94.006 30.5516 94.5486 31.1098C94.9276 31.5004 95.3151 31.8826 95.6998 32.2676C95.731 32.2989 95.7669 32.3376 95.8057 32.3452C95.8426 32.3528 95.8927 32.332 95.9267 32.3093C95.9607 32.2856 95.9947 32.244 95.9673 32.1957C95.9371 32.1437 95.9021 32.0945 95.8633 32.0482C95.5732 31.7001 95.2858 31.3491 94.989 31.0066C94.8198 30.8108 94.6591 30.6122 94.5703 30.3662C94.4701 30.0881 94.4673 29.8071 94.5325 29.5186C94.7092 28.7382 94.8784 27.9549 95.0467 27.1726C95.5231 24.958 95.9976 22.7425 96.473 20.527C96.4985 20.4087 96.5241 20.2905 96.5524 20.1732C96.6082 19.9471 96.6101 19.9414 96.8587 19.9405C98.37 19.9386 99.8824 19.9395 101.394 19.9395C101.621 19.9395 101.847 19.9367 102.074 19.9414C102.276 19.9452 102.306 19.9849 102.264 20.1959C102.194 20.5516 102.116 20.9054 102.046 21.2611C102.012 21.4351 101.988 21.6111 101.959 21.7965C102.147 21.7719 102.265 21.6716 102.395 21.6016C102.966 21.2932 103.528 20.9659 104.106 20.6708C104.866 20.2829 105.671 20.036 106.527 19.9689C108.307 19.8298 109.968 20.6065 110.882 22.2591C111.474 23.329 111.643 24.4765 111.492 25.6807C111.328 27.0023 111.036 28.2992 110.757 29.599C110.431 31.1202 110.1 32.6404 109.772 34.1606C109.698 34.5021 109.67 34.8474 109.706 35.1974C109.754 35.6552 110.006 35.9438 110.442 36.0724C110.856 36.1944 111.28 36.1736 111.702 36.1386C111.777 36.132 111.852 36.1121 111.926 36.1102C111.973 36.1102 112.009 36.1443 112.005 36.1973L112 36.1982ZM36.902 4.91251C37.1147 4.98346 37.3359 5.03738 37.6629 5.00238C37.4814 4.65237 37.4786 4.31938 37.5013 3.98828C37.5854 2.79539 38.0826 1.84373 39.1393 1.22789C39.2556 1.16073 39.3671 1.08032 39.5079 1.06897C39.6129 1.22032 39.4985 1.35749 39.4645 1.48993C38.7622 4.22478 38.0514 6.95774 37.3434 9.69164C37.2754 9.95463 37.2045 10.2176 37.1421 10.4815C37.0929 10.6887 37.1203 10.7322 37.3311 10.7284C37.9049 10.718 38.4361 10.8675 38.9418 11.1258C39.2792 11.2979 39.5987 11.5004 39.8964 11.7331C40.3246 12.068 40.7433 12.417 41.1725 12.751C41.4702 12.9827 41.7727 13.2098 42.0865 13.4188C42.4145 13.6374 42.7727 13.7906 43.164 13.8757C43.7 13.9931 44.1177 13.819 44.4429 13.4018C44.787 12.9619 44.9552 12.4483 45.0393 11.9024C45.0573 11.7851 44.9987 11.7369 44.8777 11.7757C44.078 12.0377 43.2945 11.9497 42.5279 11.6536C42.2046 11.5288 41.8908 11.3755 41.5836 11.2156C40.8615 10.8391 40.1772 10.386 39.3917 10.14C39.3047 10.1126 39.2811 10.0483 39.3009 9.96314C39.318 9.88936 39.3321 9.81557 39.351 9.74273C40.1403 6.68719 40.9333 3.63165 41.715 0.574215C41.8615 -0.00189197 42.0194 0.0227037 41.2538 0C41.2235 0 41.1933 0 41.163 0.00189198C39.7055 0.0813549 38.4342 0.613 37.3434 1.57696C36.9786 1.89954 36.6789 2.27794 36.4587 2.71593C36.2479 3.13406 36.1751 3.57394 36.2243 4.03558C36.2697 4.46601 36.4871 4.77251 36.903 4.91251H36.902ZM56.3261 17.7401C58.0161 17.7448 59.5171 16.4488 59.5171 14.6061C59.5171 12.8408 58.087 11.4408 56.345 11.4408C54.6172 11.4408 53.2192 12.8418 53.2088 14.5862C53.1984 16.3306 54.5869 17.7344 56.3261 17.7392V17.7401ZM41.6715 6.03919C41.87 5.51227 42.1281 5.01752 42.491 4.58426C43.1281 3.82463 43.9363 3.41502 44.9344 3.38947C45.2444 3.38096 45.5356 3.43015 45.8012 3.59665C45.8503 3.62786 45.9051 3.65151 45.942 3.67043C46.0346 3.64111 46.0327 3.57394 46.0554 3.52286C46.0876 3.44813 46.1367 3.39137 46.2218 3.39231C46.8248 3.40083 47.4288 3.35542 48.0309 3.41785C48.0432 3.4188 48.0546 3.43299 48.0848 3.45286C47.9364 4.04504 47.788 4.64575 47.6349 5.24456C47.3882 6.21041 47.1396 7.17532 46.8891 8.14023C46.8352 8.34645 46.788 8.55173 46.8144 8.76647C46.8409 8.97648 46.9553 9.09189 47.1632 9.12121C47.2379 9.13162 47.3145 9.12689 47.3891 9.13067C47.4477 9.13351 47.5063 9.14013 47.5659 9.14486C47.4543 9.79003 46.9761 10.2886 46.3967 10.3746C45.6282 10.4891 45.1499 10.2205 44.7539 9.41825C44.5743 9.59326 44.4297 9.74651 44.2709 9.88463C43.7973 10.2999 43.2557 10.5336 42.613 10.4768C42.3067 10.4494 42.0184 10.368 41.7651 10.1883C41.4948 9.99625 41.3256 9.73043 41.2396 9.41636C41.18 9.19784 41.1403 8.97269 41.1536 8.74376C41.2084 7.81953 41.3426 6.91044 41.6715 6.03919ZM43.13 8.81282C43.2453 9.21771 43.6943 9.44569 44.0667 9.26027C44.4249 9.08243 44.7132 8.81755 44.8172 8.40321C44.994 7.70034 45.1717 6.99842 45.3494 6.29555C45.4893 5.73931 45.632 5.18401 45.7671 4.62588C45.8182 4.41587 45.7832 4.35722 45.597 4.27303C45.27 4.12545 44.9524 4.13775 44.649 4.33925C44.4713 4.45749 44.3257 4.61074 44.1971 4.78008C43.9939 5.0459 43.8323 5.33632 43.699 5.64093C43.3285 6.49515 43.1205 7.38722 43.0846 8.22442C43.061 8.48551 43.0846 8.65106 43.13 8.81093V8.81282ZM90.9785 36.6305C90.7479 36.3505 90.5191 36.0686 90.2913 35.7867C90.1013 35.5512 89.9142 35.3147 89.7223 35.0801C89.6665 35.012 89.624 34.923 89.5068 34.9145C89.4454 35.064 89.382 35.2163 89.3206 35.3686C88.8376 36.5681 88.0058 37.4148 86.7874 37.8707C86.7033 37.9019 86.6182 37.9351 86.5417 37.9814C86.4765 38.0211 86.4594 38.1734 86.5114 38.2302C86.5719 38.2964 86.6409 38.357 86.7099 38.4147C87.0568 38.707 87.4056 38.9965 87.7534 39.2878C87.8111 39.3361 87.8706 39.3834 87.9255 39.4344C87.9727 39.478 87.9983 39.5347 87.9557 39.5924C87.9103 39.653 87.848 39.6284 87.7903 39.6066C87.7619 39.5962 87.7364 39.5801 87.709 39.5678C86.9094 39.2008 86.173 38.7278 85.4575 38.2179C85.3148 38.1167 85.2174 38.0013 85.1891 37.8196C85.1711 37.7033 85.1059 37.6806 84.9868 37.7298C84.6796 37.8565 84.3743 37.9871 84.0709 38.1214C83.7145 38.2785 83.4338 38.5206 83.2391 38.8621C83.1729 38.9785 83.1172 39.1052 82.9981 39.1857C82.9782 39.1535 82.9593 39.1308 82.9499 39.1043C82.7599 38.6114 82.5964 38.496 82.0737 38.4998C81.8771 38.5017 81.6805 38.5272 81.4848 38.5168C80.877 38.4866 80.3751 38.0571 80.2305 37.4431C80.6133 37.4649 80.9753 37.5642 81.3373 37.656C81.4687 37.6891 81.5944 37.743 81.7249 37.7809C82.4631 37.9975 83.1881 37.9644 83.8922 37.6446C84.0841 37.5576 84.2751 37.4621 84.4518 37.3476C84.828 37.1016 85.1947 36.8405 85.5634 36.588C85.5312 36.4612 85.4424 36.5019 85.3791 36.5057C84.7307 36.5473 84.0822 36.5936 83.4338 36.6391C83.3582 36.6447 83.2816 36.6428 83.2079 36.658C83.1021 36.6788 82.9244 36.5832 82.9045 36.7195C82.8875 36.833 83.0803 36.8491 83.1843 36.8992C83.4688 37.0335 83.7571 37.1612 84.0397 37.2889C84.017 37.376 83.9679 37.4053 83.9083 37.4252C83.5028 37.5595 83.1049 37.5169 82.7079 37.3826C82.3771 37.271 82.067 37.1158 81.758 36.9569C81.6908 36.9229 81.6209 36.8954 81.5538 36.8623C81.5188 36.8453 81.4914 36.8491 81.4782 36.885C81.4697 36.9087 81.4649 36.938 81.4697 36.9626C81.4838 37.0477 81.5746 37.1102 81.5349 37.2388C80.9583 37.2625 80.3713 37.3041 79.7844 37.305C79.2617 37.306 78.7701 37.1556 78.3183 36.8888C78.0319 36.7195 77.7522 36.5407 77.4695 36.3657C77.3287 36.2777 77.1879 36.1888 77.0461 36.1017C76.9563 36.0469 76.8759 36.0629 76.8032 36.1396C76.72 36.2275 76.6349 36.3136 76.5508 36.4007C76.2682 36.6949 75.9856 36.99 75.7029 37.2842C75.6415 37.3485 75.5886 37.4252 75.4837 37.4535C75.4525 37.3221 75.4988 37.2104 75.5508 37.1102C75.6481 36.9229 75.7578 36.7422 75.8712 36.5643C75.9931 36.3732 76.1283 36.1907 76.253 36.0015C76.5253 35.5881 76.6179 35.1444 76.4742 34.6619C76.4657 34.6336 76.4563 34.6052 76.4506 34.5759C76.4487 34.5626 76.4572 34.5475 76.461 34.5342C76.547 34.5314 76.6009 34.59 76.65 34.644C76.8353 34.8436 77.0158 35.047 77.1983 35.2484C77.3807 35.4499 77.5555 35.659 77.7474 35.852C78.1907 36.2976 78.7408 36.535 79.3581 36.6069C79.9129 36.6712 80.4706 36.6419 81.0273 36.6126C81.0405 36.4972 80.9498 36.4811 80.894 36.4461C80.2957 36.0639 79.6823 35.7044 79.1312 35.2513C79.0641 35.1964 78.9696 35.1756 78.8883 35.1387C79.1785 35.5237 79.4016 35.9504 79.653 36.3609C79.4318 36.4622 79.2966 36.4782 79.0962 36.4357C78.9091 36.3959 78.7664 36.29 78.6558 36.1396C78.5291 35.9665 78.4544 35.7697 78.3949 35.5654C78.2975 35.2305 78.1359 34.9278 77.9223 34.6515C77.8136 34.7395 77.9535 34.889 77.8665 34.942C77.7465 35.0148 77.6548 34.8795 77.5584 34.8246C77.1642 34.6004 76.7739 34.3706 76.3854 34.136C75.9969 33.9014 75.6179 33.6516 75.2785 33.348C74.8503 32.9629 74.3447 32.7397 73.787 32.6271C73.2832 32.525 72.7747 32.4549 72.2595 32.4332C72.0034 32.4218 71.7472 32.3982 71.4911 32.3774C71.302 32.3622 71.1281 32.3793 71.01 32.5685C71.1546 32.6924 71.338 32.7009 71.5024 32.7539C71.7463 32.8324 71.9968 32.8929 72.2416 32.9696C72.6452 33.0963 72.7473 33.2401 72.7284 33.6658C72.7066 34.1662 72.614 34.6553 72.4599 35.133C71.941 36.7384 70.9069 37.9095 69.44 38.7155C68.5401 39.2093 67.5656 39.4628 66.5561 39.6047C65.7442 39.7182 64.9285 39.7353 64.1128 39.6974C63.159 39.6539 62.2195 39.5063 61.2998 39.2471C60.5295 39.0296 59.8461 38.6587 59.2969 38.0628C58.9434 37.6796 58.6967 37.2322 58.5086 36.7573C58.3829 36.7062 58.3394 36.8074 58.2836 36.868C57.8441 37.3476 57.3951 37.8178 56.9736 38.3125C56.0643 39.3805 54.8856 39.7618 53.5302 39.6747C52.7674 39.6255 52.0462 39.4032 51.3836 39.0125C50.5329 38.5093 49.8996 37.8291 49.6274 36.8538C49.616 36.8131 49.5839 36.7791 49.565 36.7469C49.4478 36.727 49.3949 36.8131 49.3259 36.8633C48.6311 37.3722 47.9411 37.8887 47.2426 38.3929C46.9609 38.5963 46.6689 38.7864 46.373 38.9671C45.3323 39.6028 44.2 39.7608 43.0119 39.5754C42.458 39.4893 41.9249 39.3219 41.405 39.1109C40.7377 38.8394 40.2131 38.4024 39.852 37.778C39.6715 37.4668 39.5127 37.1423 39.3444 36.8254C39.231 36.8169 39.1875 36.9087 39.128 36.9711C38.8047 37.3107 38.4947 37.6626 38.1601 37.9909C37.5296 38.6105 36.8217 39.1213 35.9955 39.4534C35.0938 39.8157 34.1628 39.9443 33.1968 39.8251C32.8357 39.7807 32.4794 39.7249 32.1315 39.617C30.4349 39.0882 29.4622 37.9284 29.1465 36.1954C29.0842 35.8529 29.0596 35.5067 29.053 35.1576C29.0322 34.0537 29.036 32.9506 29.1513 31.8505C29.4112 29.3748 30.0634 27.0146 31.2496 24.817C31.9179 23.5797 32.7752 22.4946 33.9028 21.6385C35.0588 20.7597 36.368 20.2479 37.7924 20.0124C38.2858 19.931 38.782 19.8998 39.283 19.9026C40.1819 19.9074 41.0137 20.1391 41.7802 20.6074C41.8549 20.6528 41.922 20.7219 42.0241 20.7209C42.1432 20.6575 42.0903 20.5364 42.1082 20.4409C42.1876 20.0001 42.3823 19.8109 42.8266 19.7588C42.9013 19.7503 42.9778 19.7513 43.0534 19.7513C44.5648 19.757 46.0772 19.7626 47.5886 19.7683C48.0007 19.7702 48.0659 19.721 47.9629 20.2082C47.1651 23.9609 46.3796 27.7165 45.5923 31.4711C45.4344 32.2251 45.2832 32.9809 45.1386 33.7377C45.0648 34.1237 45.011 34.5125 45.1064 34.9069C45.2463 35.4916 45.5894 35.8605 46.1821 36.0024C46.6263 36.1084 47.0517 36.0355 47.478 35.9201C47.8012 35.8321 48.098 35.6836 48.3873 35.5181C48.6368 35.3762 48.8769 35.2172 49.1283 35.0791C49.3287 34.9684 49.4431 34.8105 49.4884 34.5872C49.5962 34.0546 49.7153 33.5239 49.824 32.9904C50.3618 30.3558 50.8987 27.7212 51.4337 25.0867C51.7522 23.5173 52.0585 21.946 52.3883 20.3785C52.5122 19.7901 52.377 19.8525 53.0008 19.8516C54.5888 19.8497 56.1758 19.8506 57.7638 19.8516C58.2373 19.8516 58.2364 19.8534 58.1466 20.2914C57.3044 24.3743 56.4632 28.4581 55.621 32.541C55.4745 33.2515 55.3346 33.9629 55.1739 34.6695C55.1143 34.9306 55.12 35.1775 55.2004 35.4263C55.2646 35.6278 55.327 35.8302 55.4064 36.0251C55.4877 36.2247 55.6503 36.324 55.8658 36.3411C56.2864 36.3761 56.6777 36.3032 57.0218 36.0412C57.7553 35.4831 58.2033 34.7707 58.2874 33.8323C58.3772 32.8305 58.6806 31.8798 59.0738 30.9584C59.3347 30.3463 59.8026 29.9292 60.3877 29.635C60.5219 29.5668 60.6618 29.5063 60.8036 29.4552C61.2043 29.3114 61.4491 29.0324 61.5749 28.6284C61.8613 27.7051 62.1637 26.7866 62.4445 25.8624C62.9152 24.3166 63.3736 22.7671 63.8377 21.2195C63.8812 21.0747 63.9284 20.9319 63.9795 20.79C64.1014 20.4513 64.3349 20.2347 64.6912 20.1609C64.8982 20.1183 65.1052 20.0739 65.3132 20.037C66.6374 19.8043 67.9484 19.5072 69.2632 19.231C69.3965 19.2026 69.5298 19.1761 69.663 19.1525C69.7802 19.1326 69.8237 19.1686 69.8303 19.2963C69.8426 19.5678 69.8502 19.8402 69.8577 20.1126C69.922 22.4171 70.3663 24.6411 71.2491 26.7743C71.2718 26.8292 71.2888 26.8859 71.3153 26.9625C71.0317 27.1688 70.7065 27.2917 70.405 27.4573C70.3001 27.515 70.1961 27.5774 70.0959 27.6437C70.0789 27.655 70.0789 27.6985 70.078 27.7278C70.0761 27.7837 70.1196 27.8158 70.1612 27.8139C70.251 27.8111 70.3417 27.8007 70.4286 27.778C70.9551 27.6427 71.4788 27.498 72.0072 27.3684C72.5251 27.2407 73.0025 27.0184 73.476 26.7809C73.5299 26.7535 73.5809 26.7213 73.6339 26.691C73.8068 26.5917 73.8919 26.4489 73.8777 26.2436C73.8456 25.7592 73.6887 25.3317 73.338 24.9854C73.2255 24.941 73.1528 24.8596 73.0979 24.7206C73.2662 24.7395 73.3824 24.8114 73.4855 24.9145C73.6877 25.0148 73.8891 25.116 74.0913 25.2153C74.2322 25.2844 74.2511 25.2815 74.356 25.1548C74.528 24.9448 74.6953 24.731 74.8683 24.5219C74.8976 24.4859 74.9496 24.4803 74.9874 24.5134C75.0073 24.5304 75.0271 24.5654 75.0252 24.59C75.0195 24.6487 75.0035 24.7073 74.9874 24.765C74.8419 25.3033 74.6963 25.8425 74.5498 26.3808C74.5025 26.5558 74.4515 26.7289 74.4033 26.9039C74.2426 27.4819 74.2624 28.0372 74.6055 28.5537C74.6849 28.4818 74.666 28.39 74.6556 28.3002C74.598 27.8045 74.7596 27.3788 75.0668 26.9985C75.218 26.8112 75.3853 26.6333 75.4562 26.394C75.425 26.3562 75.3948 26.3183 75.3636 26.2805C75.322 26.2956 75.2795 26.3117 75.2379 26.3268C75.0971 26.377 75.0592 26.3581 75.0715 26.237C75.1093 25.8463 75.1509 25.4556 75.1906 25.0649C75.2634 24.3582 75.3371 23.6525 75.4071 22.9459C75.4269 22.7444 75.4005 22.7075 75.1963 22.6801C74.822 22.6299 74.4467 22.5921 74.0715 22.5457C73.9978 22.5363 73.925 22.5164 73.8522 22.4994C73.8418 22.4965 73.8352 22.4786 73.8276 22.4672C73.8059 22.4322 73.8125 22.4048 73.8503 22.3963C73.9817 22.366 74.1131 22.3319 74.2464 22.3102C74.857 22.2118 75.4685 22.1162 76.081 22.0207C76.1406 22.0112 76.2011 22.0046 76.2616 22.0075C76.3258 22.0103 76.3807 22.0434 76.3825 22.1144C76.3892 22.3726 76.3844 22.6299 76.2247 22.8532C75.8211 23.416 75.6774 24.0555 75.6784 24.7357C75.6784 25.098 75.6859 25.4603 75.6925 25.8226C75.6925 25.8302 75.7114 25.8378 75.7209 25.8463C75.9808 25.5634 76.84 24.1794 76.9705 23.8209C76.755 23.8209 76.598 23.9534 76.4194 24.0139C76.254 24.0697 76.1037 24.1757 75.892 24.2022C75.9676 23.9448 76.0914 23.7566 76.2096 23.5702C76.5952 22.962 76.703 22.3196 76.5253 21.6177C76.4723 21.4096 76.4033 21.1911 76.4468 20.9271C76.6189 21.2034 76.6831 21.4824 76.7928 21.7416C76.8514 21.8807 76.909 22.0198 76.9724 22.1569C76.9827 22.1787 77.0291 22.2042 77.0461 22.1967C77.0848 22.1806 77.1141 22.1503 77.1075 22.0945C77.0867 21.9223 76.944 21.7208 77.0848 21.5855C77.1907 21.4843 77.392 21.4815 77.5518 21.438C77.7266 21.3907 77.8996 21.3282 78.0773 21.3036C78.462 21.2497 78.7853 21.0842 79.0934 20.8515C79.6955 20.3964 80.3118 19.9594 80.93 19.5252C81.3137 19.2556 81.5812 18.8999 81.7655 18.4761C81.8676 18.2405 81.9546 17.9993 82.0557 17.7628C82.12 17.6143 82.1559 17.4487 82.3119 17.3144C82.2088 17.935 82.1096 18.5291 82.0103 19.1241C82.0056 19.1534 81.9952 19.1827 81.9905 19.2121C81.9583 19.3987 82.0368 19.5261 82.2258 19.5942C82.3534 19.6406 82.481 19.687 82.6068 19.738C82.6294 19.7475 82.6436 19.7778 82.6739 19.8118C82.309 19.8799 81.9527 19.9395 81.5992 20.0162C81.3487 20.0701 81.1029 20.1448 80.8562 20.2139C80.7816 20.2347 80.7683 20.3085 80.8061 20.3567C81.0405 20.6509 81.2759 20.948 81.6814 21.0151L81.6767 21.0085C81.6842 21.0057 81.6927 21.0038 81.7003 21.0019C81.6937 21.0066 81.6871 21.0113 81.6823 21.0151C81.7901 21.1561 81.9593 21.158 82.1115 21.2005C82.5066 21.3103 82.9187 21.2743 83.3185 21.3405C83.8403 21.4266 84.3308 21.2734 84.8261 21.1513C84.8904 21.1353 84.9093 21.0728 84.9065 21.0085C84.6314 20.8127 84.3753 20.5942 84.1371 20.3548C84.017 20.2498 83.8941 20.281 83.7627 20.334C83.3762 20.4901 82.9886 20.6424 82.5992 20.79C82.4461 20.8477 82.2769 20.8694 82.1342 20.9442C81.9905 21.0198 81.8411 20.9584 81.7022 21.0019C81.7239 20.9867 81.7476 20.9707 81.7457 20.965C81.6729 20.7748 81.7381 20.6717 81.9205 20.5781C82.7807 20.1391 83.6333 19.6841 84.4896 19.2367C84.6872 19.1335 84.7751 19.1383 84.8488 19.2395C84.9471 19.3738 84.8299 19.4646 84.7779 19.564C84.6513 19.8071 84.4556 19.9916 84.2051 20.1391C84.3535 20.2432 84.4745 20.1647 84.586 20.1959C84.9093 20.0805 85.053 19.843 85.0738 19.5072C85.086 19.2972 85.1239 19.0881 85.1551 18.8393C85.2789 19.0825 85.3242 19.3086 85.3507 19.5346C85.3923 19.8913 85.536 20.1987 85.7401 20.4873C85.8176 20.597 85.88 20.7181 85.949 20.8335C86.0218 20.8552 86.0936 20.878 86.1428 20.7909C86.2099 20.6727 86.3148 20.6405 86.4462 20.6377C86.9888 20.6282 87.5313 20.6159 88.0739 20.6396C88.4123 20.6547 88.728 20.7342 89.0247 20.894C89.3026 21.0444 89.5777 21.2015 89.8594 21.3453C90.2894 21.5657 90.7309 21.752 91.2053 21.8599C91.5144 21.9299 91.8264 21.9166 92.1638 21.9469C92.0504 21.9942 91.9615 22.0434 91.8661 22.0699C91.349 22.2127 90.9067 22.4436 90.7545 23.0206C90.642 22.9402 90.6515 22.8437 90.6231 22.7671C90.4445 22.2856 90.107 21.9573 89.6457 21.7549C89.2015 21.56 88.727 21.4692 88.2535 21.3803C88.1892 21.368 88.1372 21.3897 88.124 21.4645C88.3092 21.508 88.4416 21.6366 88.5663 21.7643C89.4331 22.6517 89.9652 23.7169 90.2176 24.9268C90.2393 25.0299 90.246 25.1368 90.2497 25.2418C90.2516 25.2815 90.2374 25.3411 90.21 25.3581C90.1817 25.3752 90.1202 25.3638 90.0881 25.343C90.0248 25.3033 89.9718 25.2475 89.9151 25.1983C89.8348 25.1302 89.7526 25.063 89.6741 24.9921C89.2733 24.6288 88.8442 24.607 88.3877 24.8785C88.2733 24.9466 88.1523 25.0034 88.0238 25.0706C87.9926 24.9665 88.0663 24.9287 88.1022 24.8785C88.1457 24.817 88.1977 24.7612 88.2459 24.7045C88.4416 24.4746 88.6268 24.239 88.7875 23.9808C88.9907 23.6525 89.0191 23.3347 88.7979 23.0074C88.7393 22.9203 88.6892 22.8267 88.6325 22.7378C88.5824 22.6602 88.5351 22.6517 88.4633 22.7292C88.4359 22.7586 88.348 22.7453 88.2922 22.7321C87.8971 22.6337 87.5001 22.5429 87.1107 22.4265C86.6561 22.2903 86.2468 22.0671 85.9349 21.6981C85.7638 21.4957 85.5256 21.3935 85.311 21.2554C85.2656 21.2696 85.2231 21.2999 85.2363 21.3453C85.2571 21.4153 85.3205 21.49 85.2477 21.5505C85.1078 21.6669 85.1456 21.7747 85.225 21.9053C85.3431 22.0983 85.4481 22.2988 85.5558 22.4984C85.5823 22.5476 85.6239 22.5978 85.5832 22.6697C85.5426 22.6583 85.4982 22.6545 85.4632 22.6346C84.5548 22.1162 83.5576 21.893 82.5368 21.7473C82.0888 21.683 81.6389 21.6328 81.1889 21.5808C81.101 21.5704 81.0103 21.5789 80.8921 21.5789C81.0424 22.331 81.1908 23.0736 81.3392 23.8143C81.2088 23.854 81.188 23.7661 81.1549 23.7112C80.9451 23.3621 80.7352 23.0121 80.5339 22.6583C80.2995 22.2449 80.2938 22.1777 79.8061 22.4209C79.1444 22.7501 78.4762 23.066 77.8108 23.3895C77.6898 23.4482 77.5726 23.5135 77.4431 23.5806C77.4988 23.6733 77.6898 23.662 77.5981 23.8342C77.4771 24.0603 77.3769 24.2967 77.2691 24.5295C77.2238 24.626 77.2427 24.6997 77.341 24.7537C77.737 24.9741 78.1312 25.1945 78.5244 25.4196C78.5972 25.4613 78.704 25.4755 78.7087 25.6107C78.5811 25.6571 78.4554 25.6344 78.3278 25.5946C78.1113 25.5284 77.8939 25.465 77.6765 25.4026C77.376 25.3156 77.1198 25.3638 76.9024 25.6136C76.7238 25.8188 76.5442 26.0222 76.3901 26.2464C76.2115 26.5075 76.0347 26.7705 75.8504 27.043C75.9723 27.2189 76.0857 27.3958 76.2115 27.5632C76.4941 27.9379 76.6425 27.9587 77.0395 27.6824C77.1756 27.5878 77.3003 27.4762 77.4355 27.3797C77.5187 27.3211 77.599 27.2407 77.721 27.2747C77.7427 27.3636 77.6661 27.4015 77.6208 27.4507C77.3382 27.7647 77.0527 28.0769 76.7672 28.3881C76.5092 28.6682 76.3873 28.9879 76.4081 29.3776C76.444 30.0257 76.4515 30.6755 76.4723 31.3245C76.4752 31.3992 76.4771 31.4787 76.4997 31.5487C76.5404 31.6736 76.6302 31.5023 76.6699 31.5648C76.7171 31.6386 76.7417 31.7275 76.7757 31.8098C76.8344 31.8949 76.8949 31.9782 76.9497 32.0652C77.1368 32.3594 77.393 32.5741 77.6973 32.7359C77.7928 32.7264 77.8741 32.7643 77.9516 32.8135L77.9677 32.8154C78.118 32.8163 78.2673 32.8182 78.4176 32.8192L78.4431 32.8173C78.5821 32.7633 78.721 32.7151 78.8732 32.7189C78.8732 32.7189 78.8996 32.7416 78.8987 32.7416L78.8732 32.7189C79.0339 32.6195 79.2059 32.5552 79.4176 32.524C79.2806 32.6262 79.1983 32.7567 79.048 32.7917C79.015 32.8144 78.9819 32.8362 78.9478 32.8589V32.8617C78.8354 32.9365 78.7229 33.0112 78.6123 33.0869C78.5253 33.1465 78.4327 33.1994 78.3561 33.2694C78.1359 33.4719 78.0886 33.6857 78.2115 33.961C78.2786 34.1114 78.3713 34.2495 78.4526 34.3923C78.5631 34.5872 78.6747 34.7821 78.7862 34.976C78.8335 34.9949 78.859 35.029 78.8581 35.081L78.8675 35.098C78.8959 35.0933 78.928 35.0952 78.9516 35.082C79.0414 35.0318 79.0433 34.8644 79.1719 34.8805C79.2711 34.8928 79.3666 34.9514 79.4583 35.0006C80.2163 35.4055 80.9734 35.8132 81.7305 36.219C81.8364 36.2758 81.9451 36.3297 82.0538 36.3827C82.4102 36.5568 82.481 36.5426 82.7476 36.2503C82.9537 36.0251 83.0434 35.7612 82.9952 35.4594C82.9688 35.2957 82.9187 35.1368 82.8875 34.9741C82.8535 34.8001 82.7712 34.6336 82.792 34.4321C82.947 34.5304 82.9782 34.6884 83.0387 34.8199C83.2372 35.2494 83.5094 35.6268 83.8223 35.9778C83.931 36.0998 83.966 36.1055 84.0822 36.0062C84.276 35.8416 84.466 35.6713 84.6399 35.52C84.7826 35.5256 84.7637 35.6259 84.7978 35.6836C84.9159 35.8832 85.0917 35.9825 85.3214 35.9806C85.4566 35.9797 85.5946 35.9788 85.7279 35.9579C86.4793 35.8406 87.2336 35.9069 87.9878 35.9144C88.0285 35.9144 88.0682 35.9504 88.1088 35.9693C88.1362 35.9977 88.1637 36.0251 88.1901 36.0535C88.3234 35.9485 88.4104 35.8047 88.5011 35.6666C88.7743 35.2475 89.0824 34.8559 89.4161 34.4841C89.4662 34.4283 89.5096 34.3668 89.556 34.3072C89.4718 34.2325 89.4123 34.293 89.3518 34.3299C88.6637 34.7395 87.9708 35.1416 87.2903 35.5635C87.0294 35.7252 86.7543 35.7508 86.4661 35.7451C86.4434 35.7451 86.415 35.7148 86.3989 35.6921C86.3696 35.6514 86.3706 35.6004 86.4027 35.5672C86.4765 35.4916 86.5549 35.4216 86.6353 35.3525C86.8857 35.1349 87.1381 34.9192 87.3791 34.7121C87.3744 34.5768 87.2752 34.5569 87.2033 34.5134C86.8678 34.31 86.5294 34.1104 86.1929 33.907C86.1031 33.8522 86.0143 33.7945 85.9339 33.7273C85.9055 33.7037 85.8829 33.6374 85.897 33.6091C85.9273 33.5457 85.9868 33.5485 86.0454 33.5863C86.0965 33.6195 86.1504 33.6459 86.2033 33.6753C87.0871 34.1615 88.0077 34.223 88.9652 33.9279C89.5172 33.7585 90.0304 33.504 90.5446 33.2486C90.7167 33.1625 90.8783 33.0509 91.0787 32.9932C90.9851 33.2846 90.9624 33.3243 90.729 33.4766C90.4889 33.6337 90.2422 33.7803 89.9983 33.9326C89.8991 33.995 89.8008 34.0584 89.6854 34.1331C89.9066 34.4273 90.1136 34.7055 90.3235 34.9817C90.3632 35.0337 90.4473 35.0243 90.469 34.9694C90.5021 34.8852 90.5371 34.801 90.5617 34.714C90.6628 34.3621 90.8159 34.0395 91.0333 33.7405C91.2602 33.4293 91.3802 33.0689 91.401 32.6839C91.418 32.3821 91.4246 32.0794 91.4171 31.7776C91.4095 31.4541 91.4738 31.1476 91.59 30.8487C91.5976 30.8288 91.6354 30.807 91.6553 30.8099C91.6789 30.8137 91.7148 30.8401 91.7186 30.861C91.8547 31.5279 91.987 32.1948 91.8935 32.8825C91.8264 33.3707 91.6657 33.82 91.3953 34.2315C91.3547 34.2939 91.3216 34.3611 91.2876 34.4273C91.281 34.4396 91.2876 34.4567 91.2876 34.4954C91.5608 34.679 91.8443 34.8691 92.1184 35.0545C92.0853 35.168 92.0145 35.1406 91.9615 35.1406C91.5078 35.1444 91.0541 35.1444 90.6014 35.1482C90.5144 35.1482 90.4662 35.222 90.5012 35.3005C90.5815 35.4793 90.6666 35.6562 90.7507 35.834C90.866 36.08 90.9832 36.3259 91.0957 36.5728C91.1061 36.5965 91.1052 36.6409 91.09 36.658C91.0513 36.7005 91.0097 36.6655 90.9851 36.6362L90.9785 36.6305ZM86.2477 21.0861C86.3413 21.1305 86.4386 21.1684 86.5284 21.2195C87.0237 21.4985 87.5152 21.7833 88.0115 22.0604C88.0824 22.1002 88.1457 22.1844 88.2572 22.1408C88.2364 21.9299 88.0531 21.787 88.0172 21.5837C87.8839 21.3084 87.8848 21.3065 87.5767 21.244C87.2288 21.1731 86.8801 21.1021 86.5303 21.0378C86.4339 21.0198 86.3243 20.9754 86.2468 21.088L86.2477 21.0861ZM79.5197 21.0993C79.7768 21.0728 79.9271 21.0643 80.0745 21.0397C80.4819 20.9707 80.5972 20.8098 80.5793 20.3264C80.1851 20.4769 79.8694 20.7133 79.5197 21.0993ZM78.6274 22.209C78.6189 22.2667 78.6624 22.295 78.7011 22.2998C78.7427 22.3054 78.7919 22.2903 78.8316 22.2714C79.4167 21.9904 80.0282 21.7842 80.6596 21.6395C80.6861 21.6338 80.7078 21.6083 80.7523 21.578C80.5774 21.4985 80.4025 21.4928 80.2305 21.4654C79.9942 21.4276 79.7447 21.4134 79.5301 21.3197C79.4053 21.2658 79.3439 21.263 79.273 21.3509C79.0565 21.6206 78.8458 21.8939 78.6331 22.1664C78.6255 22.1758 78.6284 22.1938 78.6255 22.208L78.6274 22.209ZM77.048 22.3575C77.1803 22.7084 77.4402 22.8484 77.7928 22.7482C78.0688 22.6697 78.3174 22.5287 78.565 22.3859C78.5877 22.3726 78.5991 22.3395 78.6114 22.313C78.6161 22.3036 78.6095 22.2865 78.6038 22.2761C78.5972 22.2629 78.5811 22.2411 78.5754 22.243C78.4639 22.2809 78.3552 22.33 78.2418 22.3594C78.1501 22.383 78.0433 22.4332 77.9478 22.3187C78.0357 22.1702 78.1217 22.0311 78.2002 21.8873C78.2758 21.7492 78.3921 21.6281 78.4223 21.3954C78.2985 21.4739 78.2248 21.5127 78.1586 21.5628C77.9072 21.753 77.6586 21.9479 77.4072 22.1399C77.3249 22.2033 77.2474 22.2742 77.1255 22.2496C77.0376 22.2317 77.0253 22.2988 77.047 22.3575H77.048ZM41.318 22.576C40.301 21.9526 39.0656 21.8826 38.1119 22.8248C37.7886 23.1436 37.489 23.4841 37.2073 23.8398C36.4871 24.7527 36.0031 25.7905 35.5938 26.8679C35.0929 28.1885 34.7876 29.5583 34.6061 30.9556C34.4993 31.7795 34.4057 32.6063 34.4237 33.4397C34.4237 33.7122 34.4095 33.9846 34.4265 34.2561C34.4567 34.7263 34.5428 35.1832 34.7828 35.6013C35.3178 36.5322 36.5712 36.9115 37.4975 36.3571C38.0769 36.01 38.5703 35.5758 38.9597 35.0233C39.128 34.7849 39.2367 34.5219 39.2962 34.2372C39.3879 33.7935 39.4815 33.3499 39.5751 32.9071C40.1724 30.0692 40.7708 27.2321 41.3681 24.3942C41.4494 24.0101 41.5269 23.6251 41.5988 23.2391C41.6507 22.9601 41.5647 22.7274 41.3171 22.576H41.318ZM66.8435 31.3869C66.7281 30.8723 66.5599 30.37 66.4011 29.8658C65.9928 28.5698 65.5996 27.27 65.3198 25.938C65.1667 25.2134 65.0712 24.4803 64.9143 23.7547C64.8746 23.8824 64.833 24.0101 64.7961 24.1388C64.3708 25.6344 63.9218 27.1224 63.4303 28.5982C63.349 28.8413 63.2696 29.0853 63.1864 29.3285C63.1411 29.4609 63.1742 29.5527 63.2876 29.6406C63.4539 29.7702 63.6165 29.9083 63.7592 30.0635C64.1525 30.4892 64.3774 30.9868 64.3784 31.5771C64.3793 32.3991 64.0267 33.0604 63.4672 33.6327C63.0825 34.0262 62.6174 34.2552 62.0739 34.3233C61.8027 34.3573 61.5304 34.3526 61.261 34.3062C61.0229 34.2656 60.7856 34.2192 60.5484 34.1785C60.347 34.1435 60.2846 34.1861 60.3007 34.3763C60.3234 34.6468 60.3414 34.9211 60.4019 35.1841C60.6041 36.0724 61.1372 36.6892 61.9785 37.0383C62.3159 37.1783 62.6704 37.2539 63.0305 37.3003C63.936 37.4185 64.7356 37.183 65.4181 36.57C65.6667 36.3467 65.8746 36.0875 66.058 35.8085C66.9541 34.4481 67.197 32.9658 66.8435 31.3869ZM77.6368 34.1558C77.4412 33.8531 77.2361 33.558 77.0007 33.2827C76.7635 33.0055 76.5763 32.7009 76.5754 32.3168C76.4808 32.5495 76.5262 32.7927 76.5215 33.032C76.5196 33.1512 76.5423 33.2751 76.4619 33.3801C76.444 33.4038 76.4203 33.4331 76.3958 33.4369C76.3721 33.4407 76.3324 33.4208 76.3211 33.399C76.1897 33.1607 76.0753 32.9166 76.0508 32.6394C75.9874 31.9195 75.9307 31.1987 75.8561 30.4807C75.7956 29.897 75.7993 29.3058 75.6727 28.7306C75.5923 28.3683 75.5319 28.005 75.5593 27.567C75.2625 27.9852 75.0885 28.4118 74.7587 28.7259C74.8589 28.9122 74.9572 29.0995 75.0583 29.284C75.3135 29.7475 75.5413 30.2234 75.6632 30.7418C75.6774 30.8004 75.6888 30.86 75.6907 30.9196C75.6907 30.9385 75.6576 30.9612 75.6358 30.9773C75.6254 30.9849 75.6009 30.9858 75.5923 30.9773C75.5489 30.9376 75.5007 30.8997 75.4676 30.8524C75.2795 30.5781 75.0952 30.3028 74.9109 30.0266C74.4761 29.3739 74.0242 28.7297 73.7785 27.9729C73.7643 27.9303 73.7397 27.8915 73.718 27.8518C73.5479 27.5424 73.3616 27.4488 73.011 27.5036C72.6811 27.5547 72.3682 27.6645 72.0554 27.7751C71.7661 27.8773 71.7671 27.8792 71.855 28.1952C71.8833 28.2973 71.9136 28.3976 71.9429 28.4998C72.2 29.3985 72.4902 30.2886 72.6319 31.2176C72.6499 31.3358 72.6896 31.4531 72.734 31.5648C72.855 31.8694 73.0743 32.0529 73.4061 32.0993C73.5875 32.1248 73.7662 32.122 73.9467 32.103C74.3967 32.0567 74.3881 32.1087 74.3381 31.6159C74.3258 31.4986 74.2766 31.3841 74.2435 31.2687C74.1934 31.0946 74.1263 30.9243 74.0942 30.7474C74.0157 30.3142 74.0828 29.9112 74.3749 29.5659C74.4723 29.6047 74.4865 29.6794 74.5006 29.7513C74.5725 30.1212 74.6519 30.4911 74.7114 30.8629C74.8494 31.7332 75.1594 32.5193 75.7937 33.154C75.8636 33.1654 75.9052 33.2108 75.9364 33.2694L75.9648 33.2893C76.0101 33.2884 76.0347 33.312 76.0451 33.3536C76.2011 33.4388 76.358 33.5211 76.5092 33.6176C76.8826 33.8569 77.2616 34.0906 77.6491 34.2977C77.6954 34.2268 77.6633 34.1918 77.6406 34.1558H77.6368ZM76.5886 32.103C76.5933 32.0255 76.599 31.9479 76.6066 31.8713C76.5999 31.9488 76.5943 32.0255 76.5886 32.103ZM87.9793 36.167C87.9444 36.1292 87.8952 36.1348 87.8584 36.1594C87.6211 36.3136 87.3527 36.3344 87.0814 36.3515C86.8867 36.3647 86.6929 36.4073 86.4991 36.4082C86.2713 36.4082 86.122 36.4886 85.9906 36.6864C85.8243 36.9342 85.605 37.1461 85.4112 37.376C85.3554 37.4412 85.2723 37.4933 85.2789 37.5926C85.2902 37.6049 85.2978 37.6219 85.3082 37.6229C85.3517 37.6295 85.397 37.638 85.4405 37.6352C86.4557 37.5671 87.2676 37.0969 87.9434 36.3609C87.9538 36.3496 87.9623 36.3373 87.9699 36.325C88.003 36.2739 88.0294 36.2209 87.9803 36.167H87.9793ZM91.8566 28.4799C91.7356 28.689 91.6212 28.9018 91.4993 29.1109C91.4653 29.1695 91.4492 29.2679 91.3481 29.2424C91.2734 29.2235 91.297 29.144 91.2904 29.0901C91.1836 28.1904 91.1042 27.287 90.9634 26.3902C90.8745 25.8274 91.1184 25.4253 91.6411 25.1898C91.7782 25.1283 91.9228 25.081 92.0664 25.0346C92.3538 24.9429 92.644 24.8596 92.9304 24.765C92.9918 24.7451 93.0882 24.7584 93.1024 24.6439C92.9644 24.6439 92.8273 24.6288 92.695 24.6468C92.4559 24.6799 92.2196 24.73 91.9833 24.7773C91.7763 24.8189 91.5721 24.8814 91.3641 24.9079C91.1052 24.941 90.9993 24.8587 90.9369 24.6146C90.918 24.5418 90.9104 24.4661 90.9029 24.3904C90.8934 24.3034 90.9672 24.2513 91.0484 24.293C91.2507 24.3951 91.4492 24.503 91.6496 24.6089C91.7167 24.6449 91.7659 24.6118 91.8037 24.5626C91.8358 24.5209 91.8188 24.4736 91.7885 24.4396C91.4539 24.0697 91.1184 23.7017 90.7819 23.3328C90.7715 23.3214 90.763 23.3063 90.7507 23.3006C90.4237 23.1483 90.1013 22.9847 89.7516 22.891C89.7062 22.8787 89.6665 22.9147 89.6514 22.962C89.6429 22.9894 89.6287 23.0272 89.6401 23.048C89.6694 23.1001 89.7081 23.1474 89.7478 23.1918C89.9775 23.4548 90.2403 23.6819 90.5078 23.9051C90.5825 23.9675 90.6912 24.0073 90.694 24.1312C90.676 24.134 90.6609 24.1397 90.6467 24.1378C90.3821 24.1151 90.3773 24.1142 90.3755 24.3355C90.3669 25.484 90.3386 26.6333 90.3849 27.7818C90.4114 28.4477 90.5872 29.0343 91.2167 29.389C91.3093 29.441 91.3027 29.53 91.2309 29.6189C91.1335 29.7381 91.0087 29.7646 90.866 29.7419C90.7138 29.7182 90.5787 29.6501 90.4463 29.5773C90.1032 29.3871 89.7639 29.1903 89.4217 28.9983C89.4 28.986 89.3584 28.9832 89.3414 28.9955C89.2979 29.0295 89.314 29.0702 89.348 29.1062C89.5824 29.3625 89.8168 29.6198 90.0512 29.8762C90.2252 30.0654 90.401 30.2527 90.5721 30.4447C90.7214 30.6112 90.7327 30.667 90.6562 30.7503C90.5418 30.8742 90.4369 30.7843 90.3301 30.737C90.2063 30.6812 90.0853 30.6169 89.9586 30.5696C89.882 30.5412 89.8112 30.4608 89.71 30.5214C89.7639 30.5961 89.8168 30.6689 89.8707 30.7418C90.0673 31.0076 90.1486 31.3075 90.1325 31.6367C90.1231 31.8183 90.1061 31.9971 90.0541 32.173C89.9643 32.4767 89.8792 32.7823 89.796 33.0888C89.779 33.1521 89.7299 33.224 89.8348 33.2997C90.0711 33.1181 90.2857 32.9119 90.4312 32.6413C91.0002 31.5922 91.5645 30.5412 92.1373 29.494C92.2177 29.3474 92.2205 29.2112 92.1827 29.0598C92.125 28.829 92.0731 28.5963 92.0182 28.3645C91.9275 28.3475 91.8916 28.4175 91.8566 28.478V28.4799ZM83.0765 45.87C82.9678 45.8057 82.7457 45.8643 82.6758 45.9722C82.6181 46.0601 82.5671 46.1538 82.5141 46.2446C81.9262 47.2653 81.3392 48.2861 80.7485 49.3049C80.6748 49.4326 80.6246 49.5792 80.4592 49.6965C80.3883 49.5811 80.3316 49.4922 80.2796 49.4014C79.8042 48.5774 79.3288 47.7535 78.8533 46.9295C78.6794 46.6287 78.497 46.3335 78.3335 46.027C78.2456 45.8624 78.1189 45.8331 77.9573 45.8549C77.8911 45.8634 77.8438 45.8993 77.8391 45.9674C77.8334 46.0573 77.8334 46.1481 77.8334 46.2389C77.8334 47.9919 77.8334 49.7438 77.8334 51.4967C77.8334 51.5876 77.8316 51.6784 77.8372 51.7682C77.8438 51.8836 77.8968 51.9309 78.0074 51.9309C78.1246 51.9309 78.186 51.8855 78.1926 51.7805C78.2002 51.6604 78.1992 51.5393 78.1992 51.4182C78.1992 49.968 78.1992 48.5169 78.2002 47.0667C78.2002 46.9551 78.1803 46.8377 78.2682 46.6656C78.6558 47.324 79.0046 47.9341 79.3571 48.5424C79.7201 49.1677 80.083 49.794 80.4413 50.4117C80.5764 50.3994 80.5972 50.2963 80.6407 50.2225C80.9158 49.7533 81.1852 49.2822 81.4574 48.8111C81.8345 48.1574 82.2126 47.5037 82.5916 46.851C82.6257 46.7923 82.6502 46.7053 82.7722 46.7488C82.7722 46.8926 82.7722 47.0421 82.7722 47.1915C82.7722 48.5963 82.7722 50.0021 82.7722 51.4069C82.7722 51.528 82.7693 51.649 82.7759 51.7692C82.7816 51.8818 82.8336 51.9234 82.9518 51.9281C83.068 51.9319 83.1285 51.8884 83.1361 51.7815C83.1427 51.6765 83.1417 51.5705 83.1417 51.4646C83.1417 49.7419 83.1417 48.0193 83.1417 46.2976C83.1417 46.1916 83.1446 46.0857 83.1361 45.9807C83.1323 45.9409 83.1087 45.888 83.0765 45.8691V45.87ZM51.5537 46.2853C51.5537 46.1793 51.5528 46.0734 51.5471 45.9684C51.5452 45.9419 51.5301 45.9097 51.5102 45.8927C51.4469 45.8388 51.3694 45.8492 51.2947 45.8568C51.2276 45.8643 51.1879 45.9078 51.186 45.976C51.1832 46.097 51.1823 46.2181 51.1823 46.3383C51.1823 47.7298 51.1832 49.1204 51.1804 50.512C51.1804 50.6567 51.2191 50.81 51.1246 50.9613C50.9677 50.8923 50.9252 50.7371 50.8533 50.6141C50.2002 49.4903 49.5527 48.3636 48.9034 47.2388C48.6689 46.833 48.4289 46.431 48.2039 46.0204C48.1132 45.8549 47.9818 45.8331 47.823 45.8558C47.7606 45.8643 47.7067 45.8955 47.6992 45.9646C47.6916 46.0393 47.6906 46.115 47.6906 46.1907C47.6906 47.9748 47.6906 49.759 47.6906 51.5431C47.6906 51.6339 47.6906 51.7247 47.7029 51.8146C47.7114 51.8789 47.7625 51.9149 47.8268 51.9272C47.9752 51.9565 48.0668 51.8941 48.0744 51.7474C48.081 51.6263 48.0772 51.5052 48.0772 51.3842C48.0772 50.3256 48.0772 49.267 48.0772 48.2085C48.0772 47.7998 48.0772 47.3921 48.0791 46.9834C48.0791 46.9238 48.0895 46.8633 48.1056 46.8056C48.1094 46.7914 48.1755 46.7772 48.1812 46.7857C48.2521 46.8822 48.323 46.9796 48.3835 47.0837C49.2389 48.5613 50.0934 50.0399 50.9488 51.5176C51.0168 51.6349 51.0821 51.7559 51.1652 51.8619C51.2399 51.9555 51.3543 51.9432 51.4592 51.912C51.5509 51.8846 51.5481 51.8004 51.5509 51.7266C51.5547 51.6358 51.5528 51.545 51.5528 51.4542C51.5528 49.7306 51.5528 48.007 51.5528 46.2825L51.5537 46.2853ZM105.436 48.8773C105.437 50.5621 104.021 52.0161 102.277 51.9991C100.543 51.982 99.1725 50.4968 99.1848 48.8546C99.1971 47.2076 100.596 45.7196 102.322 45.7612C103.997 45.7309 105.433 47.1632 105.435 48.8773H105.436ZM105.054 48.8773C105.061 47.3353 103.756 46.1093 102.32 46.1377C100.86 46.1056 99.5771 47.3278 99.5639 48.8574C99.5516 50.3417 100.771 51.6367 102.323 51.6235C103.84 51.6103 105.047 50.3956 105.054 48.8782V48.8773ZM70.1876 48.8527C70.1999 50.406 68.8908 51.9801 67.0987 52C65.3018 52.0199 63.9388 50.4836 63.9388 48.8801C63.9388 47.2455 65.3302 45.7281 67.0495 45.7622C68.852 45.7186 70.1763 47.3136 70.1886 48.8527H70.1876ZM69.8086 48.8366C69.7897 47.4564 68.6053 46.1197 67.0316 46.132C65.5419 46.1434 64.2649 47.4422 64.3302 48.8972C64.2734 50.2386 65.4587 51.6282 67.0694 51.6235C68.6649 51.6188 69.8275 50.2414 69.8086 48.8357V48.8366ZM111.539 46.2408C111.539 46.15 111.542 46.0592 111.53 45.9693C111.525 45.9315 111.494 45.8832 111.461 45.8662C111.334 45.7991 111.177 45.888 111.172 46.027C111.167 46.1481 111.17 46.2692 111.17 46.3894C111.17 47.7941 111.17 49.1999 111.17 50.6047C111.17 50.7333 111.186 50.8648 111.138 51.0464C111 50.9064 110.939 50.7731 110.868 50.6482C110.036 49.2103 109.205 47.7724 108.374 46.3345C108.306 46.2172 108.242 46.097 108.169 45.9826C108.091 45.8586 107.92 45.8132 107.773 45.8653C107.723 45.8832 107.704 45.9239 107.701 45.9684C107.695 46.0583 107.696 46.1491 107.696 46.2399C107.696 47.9928 107.696 49.7457 107.696 51.4986C107.696 51.5743 107.694 51.65 107.697 51.7257C107.705 51.8827 107.746 51.9291 107.873 51.9309C108.01 51.9328 108.066 51.8846 108.072 51.7465C108.077 51.6254 108.075 51.5043 108.075 51.3842C108.075 49.9642 108.075 48.5434 108.075 47.1234C108.075 46.9957 108.058 46.8642 108.11 46.6845C108.248 46.8283 108.31 46.9617 108.382 47.0865C109.236 48.5632 110.09 50.0409 110.945 51.5176C111.013 51.6349 111.079 51.754 111.162 51.8619C111.236 51.9584 111.351 51.9451 111.454 51.9149C111.544 51.8874 111.534 51.7994 111.539 51.7266C111.543 51.6509 111.541 51.5753 111.541 51.4996C111.541 49.7467 111.541 47.9937 111.541 46.2408H111.539ZM38.1497 49.7921C38.1327 49.9141 38.2225 49.9869 38.2773 50.0711C38.6119 50.5924 38.9512 51.1108 39.2877 51.6311C39.3284 51.6944 39.3643 51.7607 39.3936 51.8297C39.4011 51.8468 39.3794 51.8912 39.3596 51.9035C39.2556 51.9641 39.0571 51.9385 38.9834 51.8515C38.9257 51.7824 38.8794 51.703 38.8302 51.6273C38.5108 51.1316 38.179 50.6444 37.8794 50.1374C37.7366 49.8961 37.5627 49.793 37.2933 49.8299C37.2338 49.8375 37.1723 49.8299 37.1118 49.8309C36.5088 49.8365 36.5712 49.7684 36.5683 50.353C36.5655 50.7466 36.5683 51.1392 36.5683 51.5327C36.5683 51.6235 36.5693 51.7143 36.5589 51.8042C36.5485 51.8912 36.4842 51.9262 36.4001 51.9309C36.2848 51.9376 36.2158 51.8931 36.2073 51.7938C36.2007 51.719 36.2016 51.6424 36.2016 51.5677C36.2016 49.7836 36.2016 47.9994 36.2016 46.2153C36.2016 46.1396 36.2016 46.0639 36.2054 45.9883C36.2092 45.8974 36.263 45.8558 36.35 45.853C36.4105 45.8511 36.471 45.8511 36.5315 45.8501C36.8793 45.8501 37.2281 45.8653 37.5741 45.8473C38.438 45.8019 39.334 46.5161 39.5174 47.3798C39.7131 48.3002 39.3057 49.1857 38.4654 49.6256C38.3605 49.6804 38.2272 49.6842 38.1525 49.7921H38.1497ZM39.1913 47.8121C39.179 46.9901 38.5401 46.2891 37.7376 46.2352C37.4219 46.2143 37.1043 46.2257 36.7867 46.2285C36.5948 46.2304 36.5712 46.2522 36.5693 46.4329C36.5655 46.886 36.5683 47.3382 36.5683 47.7913C36.5683 48.2747 36.5655 48.7572 36.5693 49.2406C36.5702 49.3985 36.608 49.443 36.7442 49.443C37.1062 49.443 37.471 49.461 37.8293 49.4212C38.6109 49.3342 39.2026 48.6162 39.1904 47.8121H39.1913ZM74.4146 49.7949C74.3655 49.9472 74.5205 50.0588 74.598 50.1809C74.9383 50.7163 75.2842 51.247 75.6254 51.7815C75.6812 51.8685 75.6453 51.9205 75.5451 51.9309C75.3825 51.948 75.2464 51.9205 75.1613 51.7607C75.1188 51.6812 75.0649 51.6074 75.0158 51.5317C74.7057 51.0493 74.3872 50.5716 74.0895 50.0815C73.9723 49.8895 73.8305 49.811 73.6112 49.8271C73.4306 49.8413 73.2492 49.8271 73.0677 49.8309C72.8314 49.8365 72.803 49.8611 72.8011 50.0872C72.7974 50.5403 72.8011 50.9935 72.7992 51.4466C72.7992 51.5667 72.7974 51.6878 72.7888 51.808C72.7822 51.9026 72.7123 51.9262 72.6301 51.9281C72.5507 51.93 72.475 51.9139 72.4514 51.8269C72.4353 51.7701 72.4363 51.7077 72.4363 51.6472C72.4363 49.7892 72.4363 47.9313 72.4363 46.0734C72.4363 46.0138 72.4495 45.9551 72.4552 45.9041C72.545 45.8407 72.6367 45.8492 72.7265 45.8492C73.1036 45.8492 73.4826 45.8634 73.8588 45.8454C74.5649 45.8132 75.5158 46.3477 75.7474 47.3268C75.9959 48.3769 75.5186 49.163 74.7577 49.5991C74.6415 49.6662 74.4571 49.6625 74.4137 49.794L74.4146 49.7949ZM75.4279 47.6598C75.3494 46.9295 74.7483 46.2957 74.0186 46.2399C73.6745 46.2134 73.3267 46.2276 72.9798 46.2314C72.8389 46.2323 72.803 46.2739 72.8011 46.43C72.7974 46.8973 72.8002 47.3637 72.8002 47.831C72.8002 48.2984 72.7974 48.7647 72.8011 49.232C72.803 49.4042 72.8408 49.443 73.0148 49.4458C73.3012 49.4515 73.5866 49.4468 73.873 49.4487C74.7152 49.4525 75.5347 48.6692 75.4269 47.6608L75.4279 47.6598ZM4.934 48.8896C4.91794 49.5612 4.74213 50.1686 4.34703 50.7125C3.8782 51.3577 3.24113 51.7313 2.46133 51.8543C2.14941 51.9035 1.82993 51.912 1.51328 51.9291C1.37528 51.9366 1.32519 51.8808 1.31763 51.7408C1.31195 51.6349 1.31479 51.5289 1.31479 51.4239C1.31479 50.5772 1.31479 49.7315 1.31479 48.8849C1.31479 48.0533 1.31479 47.2228 1.31479 46.3912C1.31479 46.2853 1.3129 46.1793 1.31574 46.0743C1.32141 45.8918 1.3526 45.8511 1.5199 45.8549C1.79118 45.8605 2.06529 45.8596 2.33373 45.8946C4.18256 46.1358 4.96047 47.7014 4.93211 48.8905L4.934 48.8896ZM4.41886 48.0344C4.06157 46.8983 3.13621 46.2522 1.87625 46.2418C1.72407 46.2408 1.69098 46.2758 1.68248 46.4262C1.6787 46.501 1.67964 46.5767 1.67964 46.6523C1.67964 47.3912 1.67964 48.13 1.67964 48.8688C1.67964 49.4421 1.67964 50.0153 1.67964 50.5876C1.67964 50.844 1.68059 51.1004 1.68342 51.3567C1.68437 51.4636 1.74014 51.5289 1.84694 51.528C2.5464 51.5213 3.19671 51.3577 3.71185 50.8554C4.52284 50.0636 4.75347 49.0996 4.41792 48.0335L4.41886 48.0344ZM7.48135 49.2093C7.49364 49.1223 7.54941 49.0807 7.63258 49.076C7.7082 49.0712 7.78382 49.0712 7.85849 49.0712C8.46248 49.0712 9.06647 49.0712 9.67046 49.0712C9.79145 49.0712 9.91243 49.0731 10.0325 49.0646C10.1223 49.0589 10.1563 48.9955 10.1601 48.9095C10.1658 48.7666 10.1204 48.707 9.989 48.7004C9.86801 48.6947 9.74702 48.6976 9.62698 48.6976C8.99274 48.6976 8.35851 48.6995 7.72427 48.6957C7.48797 48.6947 7.47568 48.6805 7.47473 48.4308C7.4719 47.796 7.47379 47.1622 7.47473 46.5275C7.47473 46.4669 7.47568 46.4064 7.48324 46.3468C7.4908 46.2796 7.53428 46.2389 7.60045 46.2342C7.69024 46.2266 7.78098 46.2238 7.87172 46.2238C8.49084 46.2238 9.10995 46.2238 9.72906 46.2238C9.83493 46.2238 9.94079 46.2257 10.0457 46.2124C10.1336 46.2011 10.1601 46.1273 10.162 46.046C10.1639 45.9665 10.1525 45.8908 10.0637 45.8672C10.007 45.852 9.94457 45.852 9.88502 45.852C9.03906 45.852 8.19404 45.852 7.34808 45.852C7.2734 45.852 7.19779 45.8492 7.12122 45.9154C7.1165 46.0062 7.1061 46.1112 7.1061 46.2153C7.10516 47.9824 7.1061 49.7495 7.1061 51.5166C7.1061 51.5923 7.10421 51.668 7.10894 51.7427C7.11744 51.8865 7.15525 51.93 7.30365 51.9319C7.68079 51.9376 8.05887 51.9357 8.43601 51.9357C8.94926 51.9357 9.46251 51.9366 9.97576 51.9328C10.1138 51.9319 10.1658 51.8695 10.1629 51.7361C10.161 51.6273 10.1138 51.5762 9.99561 51.5705C9.87463 51.5648 9.75364 51.5667 9.6336 51.5667C8.99936 51.5667 8.36512 51.5686 7.73089 51.5648C7.51916 51.5639 7.4804 51.5289 7.47851 51.3397C7.47473 50.6605 7.47662 49.9803 7.47757 49.3011C7.47757 49.2708 7.47946 49.2406 7.48324 49.2103L7.48135 49.2093ZM25.2787 51.7257C25.308 51.7985 25.3354 51.8761 25.2438 51.9168C25.1445 51.9612 24.9961 51.93 24.9555 51.8562C24.9054 51.7645 24.8666 51.6661 24.8298 51.5677C24.6171 50.9878 24.4016 50.4079 24.1984 49.8242C24.1388 49.654 24.0433 49.5944 23.8685 49.5972C23.3401 49.6048 22.8117 49.6057 22.2843 49.5972C22.1009 49.5944 22.0196 49.671 21.962 49.8375C21.7644 50.407 21.5527 50.9717 21.3457 51.5384C21.3098 51.6377 21.2767 51.738 21.2313 51.8335C21.1888 51.9253 21.0121 51.9726 20.9119 51.9168C20.8826 51.9007 20.858 51.8411 20.8627 51.8051C20.8731 51.7313 20.9034 51.6604 20.9298 51.5894C21.6104 49.7192 22.2909 47.849 22.9715 45.9797C22.997 45.9097 23.0064 45.8303 23.117 45.7981C23.1586 45.9012 23.204 46.0072 23.2437 46.115C23.8978 47.9143 24.5509 49.7145 25.2031 51.5138C25.2286 51.5847 25.2504 51.6566 25.2787 51.7266V51.7257ZM23.9583 49.232C23.929 49.1251 23.9176 49.0674 23.8978 49.0135C23.6454 48.3211 23.393 47.6286 23.1397 46.9361C23.135 46.9219 23.1265 46.904 23.1151 46.8992C23.1047 46.8945 23.0877 46.9049 23.0632 46.9115C22.9582 46.9986 22.946 47.1414 22.8996 47.2634C22.6841 47.8414 22.4743 48.4213 22.2673 49.0031C22.2059 49.1762 22.2418 49.2301 22.411 49.2311C22.9072 49.2339 23.4044 49.232 23.9573 49.232H23.9583ZM45.6528 51.7257C45.6755 51.7985 45.7 51.8789 45.6121 51.9215C45.5223 51.965 45.3569 51.9281 45.3219 51.8591C45.2747 51.7654 45.2388 51.6651 45.2029 51.5667C44.9902 50.9859 44.7737 50.407 44.5705 49.8233C44.51 49.6502 44.4136 49.5944 44.2378 49.5972C43.6943 49.6057 43.1508 49.6 42.6073 49.6019C42.5487 49.6019 42.4891 49.6171 42.4135 49.6284C42.2273 50.1383 42.0411 50.6472 41.854 51.1562C41.7765 51.3681 41.7027 51.5828 41.6177 51.7919C41.5647 51.9224 41.4834 51.9527 41.3209 51.9272C41.2471 51.9158 41.2178 51.8628 41.2292 51.7995C41.2434 51.7266 41.2755 51.6566 41.301 51.5857C41.9759 49.7287 42.6508 47.8727 43.3266 46.0166C43.3521 45.9466 43.3852 45.8785 43.4268 45.783C43.5185 45.8445 43.5412 45.9173 43.5676 45.9873C44.252 47.8727 44.9354 49.758 45.6197 51.6424C45.6301 51.6708 45.6424 51.6982 45.6518 51.7266L45.6528 51.7257ZM44.2888 49.1668C44.1962 48.7392 43.6215 47.1792 43.4249 46.8472C43.1291 47.6589 42.8379 48.4147 42.5799 49.1904C43.1102 49.2633 44.0043 49.2472 44.2888 49.1658V49.1668ZM89.6004 51.7238C89.6287 51.7966 89.659 51.8732 89.5682 51.9158C89.4709 51.9612 89.3196 51.9291 89.28 51.8562C89.2299 51.7645 89.1911 51.6661 89.1542 51.5677C88.9416 50.9878 88.7261 50.4079 88.5228 49.8242C88.4642 49.6549 88.3697 49.5934 88.1939 49.5953C87.6504 49.6029 87.1079 49.601 86.5644 49.5972C86.4226 49.5972 86.3489 49.654 86.3016 49.7892C86.0965 50.372 85.8819 50.9518 85.6702 51.5327C85.6343 51.632 85.6002 51.7323 85.5558 51.8278C85.5123 51.9215 85.346 51.9669 85.2363 51.9186C85.1919 51.8988 85.173 51.8524 85.1834 51.807C85.2004 51.7342 85.2259 51.6623 85.2515 51.5913C85.932 49.7211 86.6135 47.8518 87.2941 45.9816C87.3196 45.9126 87.3262 45.8312 87.4188 45.8047C87.52 45.8624 87.5134 45.9807 87.5464 46.0706C88.2156 47.8963 88.8782 49.7249 89.5427 51.5526C89.5635 51.6093 89.5777 51.668 89.6004 51.7247V51.7238ZM88.2932 49.2197C88.0096 48.4251 87.744 47.6541 87.4311 46.8709C87.2978 46.973 87.2799 47.0988 87.243 47.2067C87.0171 47.8727 86.7354 48.5197 86.5369 49.2197H88.2932ZM56.5378 48.8641C56.2391 48.5784 55.8913 48.3712 55.5038 48.2293C55.1881 48.1139 54.8979 47.955 54.6606 47.7147C54.2892 47.3382 54.2911 46.7829 54.6559 46.4149C55.0302 46.0374 55.6162 46.045 55.9887 46.4357C56.051 46.501 56.0964 46.5804 56.1541 46.6504C56.2127 46.7214 56.3535 46.7223 56.4357 46.6514C56.5057 46.5918 56.4896 46.518 56.4518 46.448C56.1408 45.8709 55.4196 45.6184 54.8128 45.8709C54.2013 46.1264 53.8837 46.8046 54.0708 47.4384C54.1701 47.7762 54.3931 48.0127 54.6691 48.2094C54.8922 48.3684 55.1427 48.4743 55.397 48.5699C55.7845 48.7165 56.1219 48.9388 56.4017 49.2453C56.8649 49.7514 56.81 50.4741 56.5936 50.8525C56.2987 51.3681 55.8573 51.6443 55.2561 51.6207C54.655 51.597 54.2381 51.2877 53.9867 50.7485C53.9489 50.6671 53.9309 50.5772 53.9045 50.4911C53.878 50.4051 53.8251 50.3701 53.7353 50.3947C53.6455 50.4193 53.5519 50.4448 53.5557 50.5602C53.5585 50.634 53.5793 50.7087 53.6039 50.7787C53.8988 51.6292 54.7344 52.1097 55.6541 51.9622C56.4376 51.8373 57.1626 51.0389 57.1031 50.1932C57.1295 49.6587 56.9159 49.2254 56.5369 48.8631L56.5378 48.8641ZM59.4708 46.3496C59.4803 46.2825 59.52 46.2399 59.5861 46.2342C59.6911 46.2257 59.7969 46.2238 59.9018 46.2229C60.4 46.2219 60.8981 46.2229 61.3962 46.2229C61.487 46.2229 61.5786 46.2257 61.6665 46.2106C61.7545 46.1964 61.779 46.1226 61.7819 46.0412C61.7847 45.9608 61.7686 45.8861 61.6807 45.8634C61.624 45.8482 61.5616 45.8501 61.5011 45.8501C60.7913 45.8501 60.0824 45.8501 59.3725 45.8501C59.3271 45.8501 59.2818 45.853 59.2374 45.8568C59.1504 45.8634 59.1003 45.9088 59.0975 45.9977C59.0937 46.1188 59.0927 46.2389 59.0927 46.36C59.0927 47.2057 59.0927 48.0514 59.0927 48.8962C59.0927 49.741 59.0927 50.5876 59.0927 51.4324C59.0927 51.5535 59.0937 51.6736 59.1012 51.7938C59.106 51.8846 59.1683 51.9196 59.2515 51.9281C59.3839 51.9413 59.4519 51.8893 59.4585 51.7578C59.4642 51.6377 59.4614 51.5166 59.4614 51.3955C59.4614 50.7012 59.4595 50.0068 59.4642 49.3115C59.4651 49.1053 59.4982 49.0731 59.6986 49.0712C60.227 49.0665 60.7554 49.0693 61.2837 49.0684C61.4047 49.0684 61.5257 49.0703 61.6457 49.0627C61.7327 49.058 61.7752 49.0031 61.7809 48.9151C61.7875 48.7941 61.7488 48.7127 61.6618 48.7061C61.5418 48.6966 61.4208 48.6966 61.2998 48.6966C60.7563 48.6957 60.2128 48.6976 59.6693 48.6938C59.4916 48.6928 59.4642 48.6626 59.4633 48.4771C59.4604 47.7979 59.4623 47.1187 59.4633 46.4385C59.4633 46.4083 59.4661 46.378 59.4699 46.3487L59.4708 46.3496ZM94.2726 45.853C94.2272 45.8492 94.1818 45.8501 94.1365 45.8501C93.1856 45.8501 92.2337 45.8501 91.2829 45.8501C91.2224 45.8501 91.1609 45.8473 91.1023 45.8577C91.0352 45.8691 91.0087 45.9201 91.0021 45.9873C90.9861 46.1538 91.0324 46.22 91.1855 46.2219C91.4719 46.2257 91.7592 46.2229 92.0456 46.2238C92.1515 46.2238 92.2574 46.2257 92.3623 46.2295C92.471 46.2333 92.5249 46.2919 92.5258 46.3988C92.5277 46.5199 92.5296 46.64 92.5296 46.7611C92.5296 47.5312 92.5296 48.3012 92.5296 49.0712C92.5296 49.8564 92.5296 50.6416 92.5296 51.4267C92.5296 51.5327 92.5268 51.6386 92.5315 51.7436C92.5381 51.8893 92.592 51.9376 92.7243 51.93C92.8547 51.9224 92.8963 51.877 92.9029 51.7228C92.9077 51.6017 92.9048 51.4816 92.9048 51.3605C92.9048 49.8659 92.9048 48.3702 92.9048 46.8756C92.9048 46.7545 92.9029 46.6344 92.9048 46.5133C92.9115 46.2304 92.9124 46.2276 93.178 46.2238C93.54 46.2191 93.903 46.2238 94.265 46.2191C94.3728 46.2181 94.4106 46.1633 94.4134 46.0374C94.4162 45.9126 94.3775 45.8605 94.2707 45.852L94.2726 45.853ZM34.1184 45.8681C34.0598 45.8568 33.9983 45.8539 33.9388 45.8539C32.9869 45.8539 32.0351 45.8539 31.0833 45.8539C31.0379 45.8539 30.9925 45.8539 30.9472 45.8577C30.83 45.8681 30.7912 45.9116 30.7903 46.0299C30.7903 46.1481 30.8337 46.2106 30.9358 46.2162C31.0861 46.2238 31.2374 46.2229 31.3886 46.2238C31.6457 46.2257 31.9018 46.2238 32.1589 46.2276C32.2695 46.2285 32.3196 46.2929 32.3177 46.4016C32.3177 46.4773 32.3187 46.553 32.3187 46.6287C32.3187 47.4451 32.3187 48.2605 32.3187 49.0769C32.3187 49.863 32.3187 50.6482 32.3187 51.4343C32.3187 51.5554 32.3196 51.6755 32.3272 51.7966C32.3319 51.8865 32.3915 51.9253 32.4775 51.93C32.5937 51.9376 32.6693 51.8922 32.675 51.7985C32.6835 51.6784 32.6835 51.5573 32.6835 51.4362C32.6835 50.0153 32.6807 48.5954 32.6864 47.1745C32.6873 46.8756 32.6382 46.5738 32.7213 46.2777C33.0276 46.168 33.3442 46.2446 33.6561 46.2247C33.8064 46.2153 33.9586 46.2238 34.108 46.2087C34.1968 46.2001 34.2185 46.1216 34.2195 46.0403C34.2204 45.9608 34.21 45.887 34.1165 45.8681H34.1184ZM18.8967 51.5705C18.459 51.5658 18.0214 51.5667 17.5838 51.5658C17.3579 51.5658 17.131 51.5677 16.9051 51.562C16.7624 51.5582 16.7265 51.5185 16.7198 51.369C16.7142 51.2489 16.717 51.1278 16.717 51.0067C16.717 49.4525 16.717 47.8982 16.717 46.3439C16.717 46.2229 16.7198 46.1018 16.7104 45.9826C16.7076 45.9447 16.6783 45.8965 16.6461 45.8757C16.528 45.7981 16.3607 45.8832 16.354 46.0214C16.3493 46.1122 16.3512 46.202 16.3512 46.2929C16.3512 47.1528 16.3512 48.0127 16.3512 48.8735C16.3512 49.7183 16.3512 50.564 16.3512 51.4088C16.3512 51.5298 16.3503 51.65 16.355 51.7711C16.3597 51.8799 16.4249 51.93 16.5308 51.9328C16.5913 51.9347 16.6518 51.9347 16.7123 51.9347C17.3758 51.9347 18.0403 51.9347 18.7038 51.9347C18.7795 51.9347 18.8551 51.9338 18.9298 51.9262C19.0167 51.9177 19.0574 51.8628 19.0659 51.7767C19.0781 51.6424 19.029 51.5724 18.8976 51.5705H18.8967ZM96.8369 45.9712C96.8322 45.8738 96.7613 45.853 96.68 45.853C96.5316 45.853 96.4891 45.8899 96.4806 46.0299C96.4787 46.0601 96.4787 46.0904 96.4787 46.1207C96.4787 47.9625 96.4787 49.8044 96.4787 51.6453C96.4787 51.7049 96.4787 51.7673 96.4938 51.825C96.5165 51.912 96.5902 51.93 96.6706 51.9291C96.7518 51.9281 96.8227 51.9054 96.8322 51.8118C96.8416 51.7067 96.8435 51.6008 96.8435 51.4958C96.8435 50.6349 96.8435 49.775 96.8435 48.9142C96.8435 48.0533 96.8435 47.1934 96.8435 46.3326C96.8435 46.2115 96.8435 46.0914 96.8379 45.9703L96.8369 45.9712ZM86.9585 20.2318C87.1372 20.2205 87.2638 20.1675 87.3451 19.9821C87.5748 19.4571 87.8262 18.9406 88.0682 18.4203C88.0805 18.3928 88.0909 18.3645 88.0956 18.3351C88.0975 18.3257 88.0824 18.3086 88.071 18.302C88.0606 18.2954 88.0436 18.2926 88.0304 18.2945C87.9472 18.3086 87.9122 18.3824 87.8659 18.4392C87.5701 18.8015 87.2771 19.1686 86.9793 19.5299C86.8489 19.6879 86.8243 19.6926 86.6305 19.6151C86.3782 19.5148 86.1305 19.4022 85.8763 19.3057C85.7817 19.2698 85.6948 19.1913 85.5388 19.2329C85.7865 19.8932 86.3347 20.2725 86.9585 20.2328V20.2318Z" fill="white"/>
</svg>
