<svg width="662" height="433" viewBox="0 0 662 433" fill="none" xmlns="http://www.w3.org/2000/svg">
<path opacity="0.1" d="M1037.25 24.484C1027.1 19.1248 1024.82 19.5402 1017.5 29.2616C1007.52 42.5142 997.752 55.9746 987.898 69.3519C985.154 73.0909 982.451 76.8714 979.666 80.6104C977.254 83.8093 974.635 87.4652 970.02 84.7648C965.738 82.2722 966.943 77.91 967.733 74.0463C969.687 64.1173 974.261 55.4761 980.165 47.2088C992.222 30.4248 997.377 11.4806 995.506 -9.16696C995.132 -13.1137 994.924 -17.185 993.76 -20.9655C986.817 -43.6902 977.878 -65.5426 963.368 -84.653C963.285 -84.653 963.243 -84.653 963.201 -84.653C963.201 -84.7776 963.16 -84.9022 963.118 -84.9853L963.534 -84.6114C962.079 -91.9232 957.963 -98.0302 954.595 -104.428C947.777 -117.348 940.584 -130.061 934.264 -143.189C929.525 -153.035 925.658 -163.38 928.028 -175.51C944.118 -163.213 957.298 -148.797 971.351 -128.358C973.346 -128.648 975.591 -129.355 975.467 -131.598C975.217 -136.168 974.677 -140.779 973.762 -145.266C969.812 -164.709 965.654 -184.11 961.58 -203.511C961.039 -206.087 960.333 -208.663 960 -211.28C959.418 -215.559 960.748 -219.007 964.574 -221.417C967.858 -223.494 970.976 -222.539 973.928 -220.96C995.049 -209.494 1007.56 -181.327 1001.62 -158.27C1000.16 -152.536 997.752 -147.011 995.881 -141.403C993.095 -132.886 989.021 -125.699 979.084 -123.912C978.377 -123.788 978.003 -121.794 977.504 -120.63C995.465 -98.9442 1009.14 -74.5992 1019.16 -48.5509C1031.55 -16.3125 1050.51 11.3144 1074.38 35.8256C1091.05 52.9834 1116.37 64.3665 1125.02 86.6759C1132.92 107.074 1037.37 24.5255 1037.37 24.5255L1037.25 24.484ZM917.176 207.238C929.192 215.297 941.665 223.648 953.722 231.79C952.267 236.776 949.149 235.571 946.82 235.571C926.864 235.737 906.907 235.737 886.992 235.903C883.167 235.903 881.046 239.144 882.585 242.592C886.119 250.444 889.861 258.212 893.561 266.023C898.633 276.824 903.789 287.626 908.736 298.469C909.194 299.508 909.152 301.46 908.487 302.208C906.782 304.077 904.953 302.54 903.872 301.252C893.727 288.955 883.666 276.575 873.646 264.195C865.289 253.85 857.015 243.464 848.617 233.161C846.164 230.17 844.293 226.265 839.137 225.891C836.435 232.455 833.649 239.144 830.947 245.832C809.701 298.511 773.114 335.693 719.522 355.717C715.822 357.088 712.08 358.542 708.712 360.578C705.843 362.323 705.095 369.011 707.382 371.504C710.042 374.412 713.078 377.071 716.113 379.605C731.371 392.442 746.713 405.155 762.013 417.95C764.549 420.069 767.169 422.146 769.58 424.39C771.659 426.301 772.781 428.794 770.91 431.328C768.915 433.987 766.171 432.906 763.635 431.951C762.387 431.494 761.265 430.788 760.059 430.248C724.885 414.128 692.497 393.356 661.024 370.964C654.746 366.519 650.463 361.45 649.216 353.474C648.426 348.364 645.557 347.367 640.319 349.527C626.806 355.094 613.377 360.827 600.031 366.726C584.357 373.623 572.009 384.258 563.444 399.255C560.534 404.365 558.081 409.932 552.842 413.464C551.969 412.051 551.137 411.054 550.722 409.891C542.365 388.246 535.172 383.178 512.18 383.344C503.532 383.427 494.884 384.549 486.278 384.092C459.544 382.762 437.467 363.901 431.106 336.939C447.945 337.894 463.868 342.257 479.792 346.286C485.571 347.74 491.101 350.109 496.839 351.77C529.31 361.284 561.199 359.83 592.173 345.788C600.613 341.966 609.012 337.77 616.787 332.743C633.334 321.941 649.466 310.475 665.68 299.383C664.267 293.816 660.359 295.602 657.573 295.769C629.052 297.597 600.53 299.632 572.009 301.626C568.683 301.876 565.315 301.792 562.072 302.457C557.415 303.371 549.599 299.175 548.726 305.158C547.978 310.143 556.459 310.849 561.074 313.051C573.589 318.95 586.269 324.559 598.701 330.167C597.703 333.989 595.541 335.277 592.922 336.15C575.085 342.049 557.582 340.179 540.12 334.28C525.568 329.378 511.931 322.565 498.335 315.585C495.383 314.09 492.307 312.885 489.355 311.431C487.816 310.683 486.611 310.849 486.029 312.428C485.654 313.466 485.447 314.754 485.654 315.834C486.278 319.573 490.269 322.315 488.523 327.965C463.162 329.004 437.343 330.832 411.524 330.874C388.532 330.915 366.912 324.309 347.039 312.594C334.441 305.158 322.134 297.306 309.703 289.62C303.508 285.756 297.313 281.851 291.077 278.029C287.127 275.62 283.593 276.326 280.392 279.691C276.733 283.555 272.991 287.335 269.291 291.157C256.859 304.077 244.428 317.039 231.997 329.96C229.294 332.785 226.966 336.15 222.351 337.396C220.979 331.621 223.016 326.719 225.303 322.315C229.585 314.09 234.408 306.155 239.397 298.344C244.761 289.952 250.706 281.934 256.194 273.625C268.168 255.471 272.243 235.986 265.923 214.799C265.549 213.552 265.133 212.306 264.884 211.018C264.8 210.436 265.175 209.772 265.341 209.19C269.124 209.066 271.494 211.641 273.656 214.009C281.805 222.775 289.746 231.707 297.771 240.556C305.795 249.405 313.486 258.586 321.926 267.061C341.426 286.629 365.623 297.056 392.773 300.214C417.178 303.039 441.708 301.751 466.197 300.463C466.779 295.395 462.787 294.688 460.334 293.151C434.017 276.367 407.033 260.58 382.794 240.681C379.842 238.271 375.685 237.357 372.109 235.737C384.873 252.646 394.685 271.382 405.745 289.412C396.016 293.858 390.07 294.564 381.256 292.694C373.024 290.949 366.746 286.296 361.881 279.691C356.31 272.088 353.026 263.447 350.406 254.473C346.124 239.767 339.014 226.473 329.618 214.342C324.837 218.205 330.99 224.769 327.165 227.096C321.885 230.295 317.852 224.354 313.611 221.944C296.274 212.098 279.103 202.003 262.015 191.7C244.927 181.397 228.255 170.429 213.329 157.094C194.495 140.185 172.251 130.381 147.721 125.437C125.561 120.95 103.193 117.876 80.5336 116.92C69.2664 116.422 57.9991 115.383 46.7319 114.469L130.716 102.13C138.699 103.252 146.557 103.127 154.498 102.297C174.288 100.261 173.914 102.546 171.711 80.9012C171.17 75.7497 169.008 70.7229 167.553 65.6544C165.35 58.0103 162.398 50.5323 160.984 42.7635C157.533 23.7362 160.485 6.0383 173.332 -9.1254C177.615 -7.42203 178.238 -4.14011 178.862 -0.982699C182.022 15.2611 185.514 31.505 188.133 47.8319C194.204 86.0527 207.841 120.576 235.738 148.452C238.815 148.951 240.644 150.945 242.016 153.521L243.264 154.393C245.259 154.352 246.34 155.39 246.798 157.218C253.658 160.957 260.56 164.572 267.212 168.809C283.635 179.32 300.307 189.581 317.353 198.679C319.39 195.564 317.977 194.026 316.979 192.448C308.372 179.154 299.35 166.192 288.998 154.102C278.562 141.93 270.33 128.553 270.288 111.686C266.131 121.905 268.127 132.582 267.919 143.093C267.835 148.328 268.833 153.77 265.299 158.381C264.509 159.42 263.47 160.708 262.389 160.874C261.35 161.04 259.603 160.168 259.104 159.212C253.325 148.743 248.295 138.025 247.214 125.852C244.428 94.2369 241.933 62.5802 238.649 31.048C235.988 5.41513 236.154 -20.55 230.583 -45.809C227.049 -61.7205 224.388 -77.6735 225.594 -96.9086C212.539 -78.546 204.889 -59.8094 190.379 -46.0167C194.786 -37.8325 199.11 -29.6067 203.558 -21.5056C214.784 -1.14884 224.804 19.7479 230.167 42.5142C230.791 45.09 231.29 47.7073 231.373 50.3245C231.373 51.1555 229.918 52.1526 228.961 52.8588C228.504 53.1911 227.423 53.2327 227.049 52.8588C225.136 51.1139 223.016 49.4521 221.561 47.3749C213.287 35.3271 205.18 23.2376 197.072 11.1067C177.947 -17.5589 158.074 -45.8506 147.264 -79.086C146.64 -80.9555 145.559 -82.6588 144.603 -84.4037C137.119 -97.9887 128.929 -102.102 113.504 -99.692C98.9935 -97.4486 85.2317 -92.6295 71.4699 -87.7688L0 -76.718C23.1581 -82.6588 46.1914 -99.692 69.4327 -105.384C92.2166 -110.992 113.213 -120.755 134.042 -131.183C136.412 -132.387 138.657 -133.8 140.986 -135.129C148.594 -139.492 152.336 -145.765 151.712 -154.78C150.299 -176.051 143.397 -194.829 127.972 -210.034C123.025 -211.986 119.823 -215.559 117.412 -221.666C124.812 -220.835 129.926 -217.678 134.458 -213.15C143.356 -208.746 152.211 -204.301 161.109 -199.939C167.304 -196.906 168.135 -197.03 172.75 -202.597C180.317 -211.82 187.676 -221.209 195.285 -230.391C196.573 -231.969 198.86 -232.218 200.523 -230.764C201.438 -230.017 202.269 -228.48 202.186 -227.399C201.937 -224.824 201.23 -222.248 200.523 -219.714C194.12 -196.075 187.718 -172.395 181.273 -148.756C179.194 -141.07 176.949 -133.468 174.829 -125.782C167.761 -100.398 168.634 -76.0117 183.726 -53.3286C187.219 -56.4859 186.387 -60.5157 185.93 -64.4624C183.394 -86.2317 190.503 -104.927 204.016 -121.627C210.668 -129.853 218.027 -137.664 221.145 -148.174C219.773 -149.836 218.443 -151.498 217.071 -153.16C215.241 -152.495 213.37 -151.789 211.541 -151.124C205.346 -148.922 203.683 -149.753 204.223 -155.071C205.887 -172.228 207.716 -189.386 209.462 -206.544C212.664 -237.578 215.906 -268.57 218.983 -299.603C219.856 -308.452 218.692 -310.073 209.712 -311.277C193.247 -313.479 176.741 -315.141 160.236 -317.177C156.993 -317.592 153.791 -318.465 150.59 -319.212C150.133 -319.337 149.841 -320.126 149.509 -320.625C148.553 -322.162 148.844 -323.367 150.507 -323.741C156.286 -325.07 162.065 -326.566 167.927 -327.521C194.786 -331.842 221.686 -336.038 248.627 -340.234C251.246 -340.649 253.907 -340.94 256.568 -340.815C259.395 -340.691 261.807 -339.237 261.89 -336.121C262.139 -324.779 261.973 -313.479 254.947 -303.675C237.194 -278.956 230.874 -250.872 230.916 -221.002C230.916 -205.09 231.248 -189.179 231.539 -173.267C231.539 -172.935 232.371 -172.602 232.787 -172.228C244.22 -184.65 282.013 -245.43 287.751 -261.175C278.271 -261.175 271.369 -255.359 263.512 -252.7C256.236 -250.249 249.625 -245.596 240.312 -244.433C243.638 -255.733 249.084 -264 254.282 -272.184C271.245 -298.897 275.984 -327.106 268.168 -357.932C265.84 -367.071 262.805 -376.668 264.717 -388.259C272.284 -376.128 275.111 -363.873 279.934 -352.489C282.512 -346.382 285.048 -340.275 287.834 -334.251C288.291 -333.296 290.328 -332.174 291.077 -332.507C292.781 -333.213 294.07 -334.542 293.779 -336.993C292.864 -344.554 286.586 -353.403 292.781 -359.344C297.438 -363.789 306.294 -363.914 313.32 -365.825C321.012 -367.902 328.62 -370.644 336.437 -371.724C337.351 -371.849 338.224 -372.057 339.097 -372.223C332.944 -367.487 326.791 -362.709 320.596 -358.015C316.979 -355.231 313.57 -352.115 308.206 -353.196C304.34 -353.985 303.799 -351.035 304.755 -348.46C310.576 -333.047 322.01 -326.898 337.518 -331.302C349.658 -334.75 360.593 -340.94 371.486 -347.213C372.483 -347.795 372.982 -349.249 373.523 -350.412C373.731 -350.828 373.44 -351.575 373.19 -352.032C372.899 -352.614 372.192 -353.57 371.943 -353.486C367.037 -351.825 362.256 -349.664 357.266 -348.376C353.233 -347.338 348.535 -345.136 344.336 -350.163C348.203 -356.685 351.986 -362.792 355.437 -369.107C357.308 -372.514 359.678 -375.671 361.715 -379.618C368.45 -382.9 374.853 -386.93 381.09 -391.666C407.574 -411.649 434.682 -430.842 461.873 -449.911C478.753 -461.751 490.519 -477.372 498.626 -495.984C503.117 -506.328 506.942 -516.922 511.39 -527.308C514.217 -533.83 515.797 -541.101 522.658 -547C518.126 -519.747 513.76 -493.657 509.395 -467.526C509.187 -466.238 508.729 -464.95 508.521 -463.662C507.108 -455.464 510.559 -449.869 518.874 -446.878C524.487 -444.842 530.1 -442.807 535.629 -440.563C536.627 -440.148 537.251 -438.819 538.581 -437.323C522.533 -434.332 506.858 -431.714 491.309 -428.349C480.291 -425.981 469.481 -422.699 458.63 -419.667C458.463 -419.625 458.339 -419.542 458.214 -419.5C459.877 -423.987 460.376 -429.886 460.085 -437.697C442.748 -431.091 428.861 -420.705 413.478 -403.755C424.787 -404.918 431.397 -405.292 437.883 -406.372C446.614 -407.826 452.269 -410.278 455.678 -414.847C455.844 -414.349 456.052 -413.85 456.385 -413.393C466.696 -400.473 477.048 -387.428 494.884 -384.479L494.677 -384.769C495.009 -384.894 495.383 -384.977 495.716 -385.06C495.425 -384.852 495.134 -384.645 494.926 -384.479C499.666 -378.288 507.108 -378.205 513.802 -376.336C531.181 -371.517 549.308 -373.095 566.895 -370.187C589.845 -366.407 611.423 -373.137 633.209 -378.496C636.036 -379.202 636.868 -381.944 636.743 -384.769C624.644 -393.369 613.377 -402.966 602.9 -413.476C597.62 -418.088 592.215 -416.717 586.436 -414.39C569.431 -407.536 552.385 -400.847 535.255 -394.366C528.52 -391.832 521.078 -390.876 514.8 -387.594C508.48 -384.271 501.911 -386.971 495.799 -385.06C496.755 -385.725 497.795 -386.431 497.712 -386.68C494.51 -395.031 497.379 -399.559 505.403 -403.672C543.238 -422.949 580.74 -442.931 618.408 -462.582C627.098 -467.11 630.964 -466.903 634.207 -462.457C638.531 -456.558 633.376 -452.57 631.089 -448.208C625.518 -437.531 616.911 -429.43 605.894 -422.949C612.421 -418.379 617.743 -421.827 622.649 -420.456C636.868 -425.524 643.188 -435.952 644.102 -450.7C644.643 -459.923 646.306 -469.104 647.678 -480.031C653.124 -469.354 655.12 -459.425 656.284 -449.495C658.114 -433.833 664.433 -420.331 673.414 -407.66C676.823 -402.841 679.567 -397.523 682.602 -392.455C685.803 -391.5 688.963 -390.502 691.125 -394.325C694.077 -399.518 698.692 -400.93 704.471 -401.055C708.421 -401.138 712.371 -401.179 716.321 -401.262C718.191 -400.39 720.104 -399.518 721.892 -398.479C740.892 -387.761 759.81 -376.917 778.852 -366.241C778.644 -365.784 778.394 -365.327 778.311 -364.745C786.46 -362.834 792.281 -357.184 797.769 -351.575C835.894 -312.607 859.302 -265.828 870.403 -212.693C871.359 -208.164 871.65 -203.47 871.816 -198.858C871.9 -197.114 871.276 -194.496 870.029 -193.748C868.781 -193.001 866.079 -193.499 864.665 -194.413C861.88 -196.158 859.551 -198.609 857.057 -200.769C853.523 -203.761 849.906 -206.71 846.455 -209.826C828.826 -225.779 809.951 -226.735 789.869 -214.811C784.839 -211.82 779.517 -209.328 773.862 -206.378C772.49 -210.948 775.733 -212.61 777.313 -214.811C779.226 -217.512 781.512 -219.963 783.633 -222.456C792.239 -232.551 800.388 -242.895 807.456 -254.237C816.395 -268.653 817.642 -282.612 807.914 -296.986C805.336 -300.808 803.132 -304.921 800.638 -308.826C798.434 -312.233 796.355 -312.607 793.195 -309.2C791.99 -307.912 788.123 -308.494 785.67 -309.076C768.291 -313.396 750.829 -317.384 733.7 -322.494C713.701 -328.477 695.699 -338.281 681.978 -354.484C674.453 -363.374 663.976 -367.861 654.538 -373.926C652.542 -373.303 650.671 -371.974 651.253 -369.98C652.168 -366.905 654.954 -363.623 651.752 -360.964C645.599 -355.854 647.262 -351.118 650.755 -345.385C655.952 -336.91 660.567 -328.103 665.306 -319.337C666.47 -317.177 668.3 -314.975 666.512 -311.817C664.724 -312.316 662.77 -312.482 661.232 -313.355C621.277 -336.121 577.414 -345.925 532.553 -352.323C512.845 -355.148 493.055 -357.35 473.265 -359.635C469.398 -360.092 465.407 -359.718 460.21 -359.718C466.82 -326.69 473.348 -294.078 479.875 -261.549C474.138 -259.804 473.223 -263.668 471.768 -266.077C462.538 -281.407 453.308 -296.778 444.452 -312.316C434.141 -330.471 433.892 -333.421 412.438 -322.744C383.335 -308.286 353.94 -294.41 324.67 -280.202C319.349 -277.626 314.193 -274.76 308.497 -271.81C310.95 -267.739 319.349 -268.237 315.316 -260.676C309.994 -250.747 305.587 -240.361 300.847 -230.141C298.851 -225.904 299.683 -222.663 304.007 -220.295C321.428 -210.615 338.765 -200.936 356.061 -191.048C359.262 -189.22 363.96 -188.597 364.168 -182.656C358.555 -180.62 353.026 -181.617 347.413 -183.362C337.892 -186.27 328.329 -189.054 318.767 -191.796C305.545 -195.618 294.278 -193.499 284.715 -182.531C276.858 -173.516 268.958 -164.584 262.181 -154.738C254.323 -143.272 246.548 -131.723 238.441 -119.758C243.804 -112.031 248.793 -104.262 254.323 -96.9086C266.754 -80.457 273.282 -79.543 290.744 -91.6739C296.731 -95.8284 302.219 -100.731 308.165 -104.968C311.823 -107.544 315.357 -111.075 320.721 -109.58C321.677 -105.674 318.309 -104.013 316.314 -101.852C303.882 -88.0596 291.326 -74.35 278.77 -60.6819C267.42 -48.3848 262.056 -34.3427 262.971 -17.2265C264.551 11.2314 264.884 39.7723 265.798 68.2717C265.923 71.5537 266.006 75.0435 267.004 78.1178C268.792 83.6016 272.741 76.0821 274.488 78.824C276.567 82.0645 277.648 85.9696 279.144 89.5839C281.68 93.323 284.383 96.9788 286.794 100.801C295.026 113.721 306.294 123.152 319.681 130.256C323.881 129.84 327.456 131.502 330.865 133.662L331.572 133.746C338.183 133.787 344.793 133.87 351.363 133.912L352.485 133.829C358.597 131.461 364.709 129.342 371.402 129.508C371.402 129.508 372.567 130.505 372.525 130.505L371.402 129.508C378.47 125.146 386.037 122.321 395.35 120.95C389.322 125.437 385.705 131.17 379.094 132.707C377.639 133.704 376.184 134.66 374.687 135.657V135.781C369.739 139.063 364.792 142.345 359.886 145.669C356.061 148.286 351.986 150.613 348.618 153.687C338.931 162.577 336.852 171.966 342.257 184.056C345.209 190.661 349.284 196.727 352.859 203C357.724 211.558 362.63 220.116 367.536 228.633C369.615 229.464 370.737 230.959 370.696 233.244L371.111 233.992C372.359 233.784 373.772 233.867 374.812 233.286C378.761 231.084 378.845 223.731 384.499 224.437C388.865 224.977 393.064 227.553 397.097 229.713C430.441 247.494 463.744 265.4 497.046 283.222C501.703 285.715 506.484 288.083 511.266 290.409C526.94 298.053 530.058 297.43 541.783 284.593C550.846 274.706 554.796 263.115 552.676 249.862C551.512 242.675 549.308 235.695 547.936 228.55C546.439 220.906 542.822 213.594 543.737 204.745C550.555 209.066 551.927 216.003 554.588 221.778C563.319 240.639 575.293 257.215 589.055 272.628C593.836 277.988 595.375 278.237 600.489 273.875C609.012 266.646 617.369 259.168 625.019 252.521C631.297 252.77 630.465 257.174 631.962 259.708C637.159 268.474 644.892 272.836 654.995 272.753C660.941 272.711 667.011 272.67 672.873 271.756C688.506 269.305 704.222 268.682 719.896 268.765C710.25 268.972 703.848 272.462 698.152 280.937C690.834 291.822 681.188 301.128 672.665 311.223C670.212 314.09 666.554 316.375 666.845 320.737C667.344 321.277 667.676 322.025 668.133 322.066C670.046 322.357 672.042 322.731 673.954 322.606C715.697 319.823 749.623 301.585 778.145 272.836C779.143 273.875 780.14 274.913 781.18 275.952C787.042 271.34 790.867 265.026 794.858 258.96C806.874 240.556 820.428 223.357 835.105 207.03C837.308 204.579 839.221 201.878 841.258 199.261C837.557 195.979 834.938 198.638 832.277 200.258C802.01 218.247 771.534 235.903 741.599 254.432C730.124 261.536 718.025 262.658 705.344 262.408C704.347 262.408 703.099 261.079 702.392 260.082C701.104 258.296 701.145 256.052 702.559 254.598C705.802 251.275 709.253 248.2 712.787 245.168C723.804 235.612 734.905 226.14 745.507 217.042C745.299 211.101 740.934 210.229 737.774 208.318C723.014 199.386 708.13 190.62 693.329 181.688C689.379 179.278 685.471 176.744 681.937 173.794C680.69 172.756 679.733 169.848 680.315 168.601C681.646 165.818 684.265 165.942 686.843 167.604C689.088 169.058 691.458 170.222 693.786 171.509C732.66 192.863 773.156 195.564 815.272 182.602C839.553 175.165 862.129 163.99 884.747 152.773C892.314 148.992 899.423 144.09 908.237 141.556C904.121 154.352 903.124 156.096 892.854 162.785C882.294 169.681 871.442 176.121 860.716 182.809C856.35 185.551 852.026 188.335 846.954 191.617C856.683 204.537 865.788 216.751 875.018 228.882C876.764 231.167 880.464 230.752 881.421 228.342C882.876 224.645 884.414 220.947 885.495 217.125C889.944 201.671 896.679 187.504 906.242 174.376C916.22 160.708 921.5 144.88 922.415 127.971C923.163 114.718 923.454 101.424 923.122 88.1715C922.789 73.9633 925.616 60.5029 930.73 47.3749C931.063 46.5025 932.726 45.547 933.599 45.6716C934.638 45.8377 936.218 47.001 936.385 47.915C942.372 77.2038 948.192 106.493 944.076 136.695C941.124 158.132 934.056 177.866 922.166 195.938C920.378 198.679 918.923 201.629 917.426 204.537C917.135 205.077 917.426 205.825 917.426 207.528L917.176 207.238ZM374.146 -355.107C373.772 -352.572 375.685 -351.326 377.389 -351.118C379.219 -350.869 381.381 -351.534 383.127 -352.365C408.863 -364.703 435.763 -373.76 463.536 -380.116C464.7 -380.366 465.656 -381.487 467.61 -382.817C459.919 -386.306 452.227 -386.556 444.66 -387.761C434.266 -389.422 423.29 -390.045 413.852 -394.158C408.364 -396.526 405.661 -396.651 402.543 -392.787C393.022 -380.947 383.751 -368.941 374.396 -356.976C374.063 -356.561 374.188 -355.771 374.063 -355.148L374.146 -355.107ZM956.05 -79.7508C950.729 -70.5695 945.698 -61.222 940.334 -52.0406C938.838 -49.4649 938.131 -45.1443 933.682 -46.266C930.398 -47.0969 931.437 -50.5866 931.146 -52.9546C926.448 -92.4633 922.956 -132.138 916.761 -171.522C912.852 -196.241 923.579 -213.897 946.571 -224.242C952.599 -226.942 958.961 -229.02 965.28 -231.055C977.92 -235.085 990.684 -238.741 1003.28 -242.895C1005.98 -243.768 1010.22 -243.186 1010.85 -248.213C1004.78 -248.213 998.749 -248.878 992.929 -248.088C982.41 -246.634 972.016 -244.433 961.622 -242.355C952.516 -240.527 943.536 -237.785 934.389 -236.622C922.997 -235.168 918.341 -238.783 915.597 -249.501C914.765 -252.7 914.432 -256.023 914.1 -259.347C913.684 -263.169 916.927 -265.454 920.502 -263.626C929.4 -259.139 938.131 -254.403 946.945 -249.75C949.897 -248.172 952.059 -249.626 953.722 -251.786C955.136 -253.614 954.387 -255.691 953.057 -257.187C938.339 -273.43 923.579 -289.591 908.778 -305.794C908.321 -306.292 907.946 -306.957 907.406 -307.206C904.828 -308.411 902.292 -309.616 899.714 -310.82C908.903 -326.067 924.743 -333.462 942.663 -338.364C946.862 -339.528 950.812 -341.688 955.759 -343.765C940.917 -345.053 927.196 -344.513 913.601 -347.587C892.688 -352.323 873.272 -360.507 854.396 -370.187C842.006 -376.502 829.949 -383.398 817.684 -390.004C804.629 -397.025 790.742 -400.556 775.858 -401.179C766.462 -401.595 757.066 -401.719 747.669 -401.719C754.405 -400.39 761.098 -399.019 767.834 -397.648C781.346 -394.906 781.346 -394.823 787.208 -382.734C788.248 -376.668 792.281 -371.808 795.066 -366.448C812.113 -363.083 829.034 -359.178 845.041 -352.157C861.713 -344.887 874.602 -333.753 883.084 -318.298C876.681 -320.957 870.195 -323.367 863.46 -325.153C861.464 -325.693 859.718 -324.115 859.053 -322.037C858.678 -320.833 858.055 -319.171 858.554 -318.257C859.842 -315.972 861.547 -313.895 863.293 -311.942C873.396 -300.393 884.955 -290.422 896.721 -280.618C900.005 -277.876 904.787 -276.131 904.911 -270.689C904.121 -270.564 903.456 -270.315 902.832 -270.398C891.191 -271.395 890.983 -271.436 890.942 -261.715C890.567 -211.28 889.32 -160.804 891.357 -110.369C892.522 -81.1217 900.255 -55.3642 927.945 -39.7851C932.019 -37.5002 931.728 -33.595 928.568 -29.6898C924.286 -24.4552 918.798 -23.292 912.52 -24.289C905.826 -25.3277 899.839 -28.3189 894.06 -31.5178C878.968 -39.8682 864.042 -48.5094 848.991 -56.9429C848.035 -57.483 846.205 -57.6076 845.457 -57.0675C843.545 -55.572 844.251 -53.7855 845.748 -52.2068C856.059 -40.9483 866.37 -29.6483 876.681 -18.3897C884.331 -10.0808 892.064 -1.85514 899.59 6.5784C906.159 13.8902 906.658 16.3413 903.29 19.9972C898.259 25.4395 893.644 21.4928 888.946 19.4156C883.499 16.9644 878.178 14.1394 872.606 12.0622C869.239 10.8159 866.12 7.28463 861.672 9.94345C864.042 13.2255 866.37 16.4244 868.74 19.6233C877.388 31.2973 880.963 44.4668 880.256 58.9242C879.841 66.9007 879.092 74.7526 876.806 82.4799C872.856 95.8156 869.114 109.234 865.455 122.695C864.707 125.478 862.545 128.636 867.16 131.959C877.554 123.983 886.992 114.926 893.395 103.044C918.424 56.9717 943.245 10.8159 968.44 -35.1736C971.974 -41.613 972.099 -47.5954 970.436 -54.2425C967.9 -64.3794 965.613 -74.5992 963.201 -84.7776C959.21 -85.5254 957.63 -82.4511 956.092 -79.7923L956.05 -79.7508ZM740.601 -441.976C748.459 -442.474 754.03 -444.801 757.606 -452.944C767.709 -476.001 778.768 -498.684 789.412 -521.533C789.952 -522.738 790.41 -523.984 790.618 -525.272C790.701 -525.688 790.036 -526.436 789.537 -526.726C789.079 -527.017 788.331 -527.142 787.79 -527.059C784.132 -526.436 782.593 -523.195 780.556 -520.702C767.501 -504.791 754.654 -488.672 741.557 -472.802C735.82 -465.864 734.739 -465.656 726.216 -469.063C715.115 -473.467 704.222 -478.41 693.038 -482.648C688.88 -484.226 685.055 -487.675 678.195 -485.847C689.088 -456.849 713.202 -440.189 740.643 -441.934L740.601 -441.976Z" fill="#D9D9D9"/>
</svg>
